<?xml version="1.0" encoding="utf-8" standalone="no"?>
<!DOCTYPE svg PUBLIC "-//W3C//DTD SVG 1.1//EN"
  "http://www.w3.org/Graphics/SVG/1.1/DTD/svg11.dtd">
<svg height="324pt" version="1.1" viewBox="0 0 432 324" width="432pt" xmlns="http://www.w3.org/2000/svg" xmlns:xlink="http://www.w3.org/1999/xlink">
 <metadata>
  <rdf:RDF xmlns:cc="http://creativecommons.org/ns#" xmlns:dc="http://purl.org/dc/elements/1.1/" xmlns:rdf="http://www.w3.org/1999/02/22-rdf-syntax-ns#">
   <cc:Work>
    <dc:type rdf:resource="http://purl.org/dc/dcmitype/StillImage"/>
    <dc:date>2021-11-19T11:22:15.637241</dc:date>
    <dc:format>image/svg+xml</dc:format>
    <dc:creator>
     <cc:Agent>
      <dc:title>Matplotlib v3.4.3, https://matplotlib.org/</dc:title>
     </cc:Agent>
    </dc:creator>
   </cc:Work>
  </rdf:RDF>
 </metadata>
 <defs>
  <style type="text/css">*{stroke-linecap:butt;stroke-linejoin:round;}</style>
 </defs>
 <g id="figure_1">
  <g id="patch_1">
   <path d="M 0 324 
L 432 324 
L 432 0 
L 0 0 
z
" style="fill:none;"/>
  </g>
  <g id="axes_1">
   <g id="patch_2">
    <path d="M 55.62 269.88 
L 409.288661 269.88 
L 409.288661 15.12 
L 55.62 15.12 
z
" style="fill:#ffffff;"/>
   </g>
   <g id="PolyCollection_1">
    <defs>
     <path d="M 64.908806 -65.790456 
L 64.908806 -65.729252 
L 82.529146 -65.778614 
L 100.149487 -65.809891 
L 117.769827 -65.860558 
L 135.390167 -65.920396 
L 153.010507 -65.91639 
L 170.630847 -65.997573 
L 188.251187 -66.063836 
L 205.871527 -66.108941 
L 223.491867 -66.136842 
L 241.112207 -66.219637 
L 258.732548 -66.277734 
L 276.352888 -66.298281 
L 293.973228 -66.325875 
L 311.593568 -66.362625 
L 329.213908 -66.474783 
L 346.834248 -66.566761 
L 364.454588 -66.635888 
L 382.074928 -66.713105 
L 399.695268 -66.615448 
L 399.695268 -67.184899 
L 399.695268 -67.184899 
L 382.074928 -66.825248 
L 364.454588 -66.781987 
L 346.834248 -66.728524 
L 329.213908 -66.842217 
L 311.593568 -66.892968 
L 293.973228 -66.716153 
L 276.352888 -66.612156 
L 258.732548 -66.506499 
L 241.112207 -66.427938 
L 223.491867 -66.462034 
L 205.871527 -66.352427 
L 188.251187 -66.283841 
L 170.630847 -66.223142 
L 153.010507 -66.195242 
L 135.390167 -66.048769 
L 117.769827 -66.017381 
L 100.149487 -65.939081 
L 82.529146 -65.874485 
L 64.908806 -65.790456 
z
" id="mb80f96c44e" style="stroke:#0d3b66;stroke-opacity:0.2;"/>
    </defs>
    <g clip-path="url(#pd80c3d1a9a)">
     <use style="fill:#0d3b66;fill-opacity:0.2;stroke:#0d3b66;stroke-opacity:0.2;" x="0" xlink:href="#mb80f96c44e" y="324"/>
    </g>
   </g>
   <g id="PolyCollection_2">
    <defs>
     <path d="M 64.908806 -65.783751 
L 64.908806 -65.7 
L 82.529146 -65.85235 
L 100.149487 -66.149543 
L 117.769827 -66.620533 
L 135.390167 -67.277431 
L 153.010507 -68.069322 
L 170.630847 -69.054563 
L 188.251187 -70.138612 
L 205.871527 -71.419975 
L 223.491867 -72.790408 
L 241.112207 -74.514722 
L 258.732548 -76.294515 
L 276.352888 -78.125574 
L 293.973228 -80.192768 
L 311.593568 -82.429375 
L 329.213908 -84.834646 
L 346.834248 -87.33933 
L 364.454588 -89.780991 
L 382.074928 -93.030626 
L 399.695268 -96.11332 
L 399.695268 -97.533307 
L 399.695268 -97.533307 
L 382.074928 -94.845364 
L 364.454588 -91.531813 
L 346.834248 -88.677445 
L 329.213908 -86.135706 
L 311.593568 -84.014093 
L 293.973228 -81.586911 
L 276.352888 -79.285219 
L 258.732548 -77.25913 
L 241.112207 -75.447398 
L 223.491867 -73.646158 
L 205.871527 -72.195246 
L 188.251187 -70.902696 
L 170.630847 -69.629698 
L 153.010507 -68.623805 
L 135.390167 -67.75143 
L 117.769827 -66.980503 
L 100.149487 -66.426619 
L 82.529146 -66.067204 
L 64.908806 -65.783751 
z
" id="m78fae2c357" style="stroke:#dbad6a;stroke-opacity:0.2;"/>
    </defs>
    <g clip-path="url(#pd80c3d1a9a)">
     <use style="fill:#dbad6a;fill-opacity:0.2;stroke:#dbad6a;stroke-opacity:0.2;" x="0" xlink:href="#m78fae2c357" y="324"/>
    </g>
   </g>
   <g id="PolyCollection_3">
    <defs>
     <path d="M 64.908806 -74.649751 
L 64.908806 -69.060156 
L 82.529146 -77.690719 
L 100.149487 -87.081408 
L 117.769827 -96.593611 
L 135.390167 -106.619117 
L 153.010507 -116.467622 
L 170.630847 -126.765007 
L 188.251187 -136.479448 
L 205.871527 -146.158194 
L 223.491867 -155.835797 
L 241.112207 -166.407919 
L 258.732548 -176.864794 
L 276.352888 -186.301554 
L 293.973228 -196.955867 
L 311.593568 -207.38202 
L 329.213908 -217.381007 
L 346.834248 -227.839858 
L 364.454588 -237.686386 
L 382.074928 -249.455852 
L 399.695268 -259.109171 
L 399.695268 -264.302871 
L 399.695268 -264.302871 
L 382.074928 -255.50216 
L 364.454588 -243.566319 
L 346.834248 -233.601202 
L 329.213908 -222.75461 
L 311.593568 -214.131869 
L 293.973228 -203.129006 
L 276.352888 -192.353412 
L 258.732548 -182.246251 
L 241.112207 -172.146958 
L 223.491867 -161.483494 
L 205.871527 -151.944984 
L 188.251187 -142.434364 
L 170.630847 -131.879508 
L 153.010507 -122.387735 
L 135.390167 -112.703641 
L 117.769827 -102.290977 
L 100.149487 -92.440137 
L 82.529146 -83.606316 
L 64.908806 -74.649751 
z
" id="m1af0136e9e" style="stroke:#0e9595;stroke-opacity:0.2;"/>
    </defs>
    <g clip-path="url(#pd80c3d1a9a)">
     <use style="fill:#0e9595;fill-opacity:0.2;stroke:#0e9595;stroke-opacity:0.2;" x="0" xlink:href="#m1af0136e9e" y="324"/>
    </g>
   </g>
   <g id="PolyCollection_4">
    <defs>
     <path d="M 64.908806 -74.872951 
L 64.908806 -69.175838 
L 82.529146 -78.036804 
L 100.149487 -87.757296 
L 117.769827 -97.802432 
L 135.390167 -108.535491 
L 153.010507 -119.235379 
L 170.630847 -130.582239 
L 188.251187 -141.456467 
L 205.871527 -152.467962 
L 223.491867 -163.545693 
L 241.112207 -175.905723 
L 258.732548 -188.211395 
L 276.352888 -199.55224 
L 293.973228 -212.33212 
L 311.593568 -225.082634 
L 329.213908 -237.525702 
L 346.834248 -250.505589 
L 364.454588 -262.878598 
L 382.074928 -277.972769 
L 399.695268 -290.89444 
L 399.695268 -297.3 
L 399.695268 -297.3 
L 382.074928 -285.735008 
L 364.454588 -270.440209 
L 346.834248 -257.582953 
L 329.213908 -244.23269 
L 311.593568 -233.465738 
L 293.973228 -219.909883 
L 276.352888 -206.759379 
L 258.732548 -194.572951 
L 241.112207 -182.594273 
L 223.491867 -170.144464 
L 205.871527 -159.047227 
L 188.251187 -148.181754 
L 170.630847 -136.302676 
L 153.010507 -125.76016 
L 135.390167 -115.120716 
L 117.769827 -103.896555 
L 100.149487 -93.424806 
L 82.529146 -84.168308 
L 64.908806 -74.872951 
z
" id="m97f30f7d45" style="stroke:#bf4e30;stroke-opacity:0.2;"/>
    </defs>
    <g clip-path="url(#pd80c3d1a9a)">
     <use style="fill:#bf4e30;fill-opacity:0.2;stroke:#bf4e30;stroke-opacity:0.2;" x="0" xlink:href="#m97f30f7d45" y="324"/>
    </g>
   </g>
   <g id="matplotlib.axis_1">
    <g id="xtick_1">
     <g id="line2d_1">
      <defs>
       <path d="M 0 0 
L 0 3.5 
" id="md67191ebd3" style="stroke:#000000;stroke-width:0.8;"/>
      </defs>
      <g>
       <use style="stroke:#000000;stroke-width:0.8;" x="139.859976" xlink:href="#md67191ebd3" y="269.88"/>
      </g>
     </g>
     <g id="text_1">
      <!-- 2000 -->
      <g transform="translate(124.289351 286.900937)scale(0.14 -0.14)">
       <defs>
        <path d="M 3222 541 
L 3222 0 
L 194 0 
Q 188 203 259 391 
Q 375 700 629 1000 
Q 884 1300 1366 1694 
Q 2113 2306 2375 2664 
Q 2638 3022 2638 3341 
Q 2638 3675 2398 3904 
Q 2159 4134 1775 4134 
Q 1369 4134 1125 3890 
Q 881 3647 878 3216 
L 300 3275 
Q 359 3922 746 4261 
Q 1134 4600 1788 4600 
Q 2447 4600 2831 4234 
Q 3216 3869 3216 3328 
Q 3216 3053 3103 2787 
Q 2991 2522 2730 2228 
Q 2469 1934 1863 1422 
Q 1356 997 1212 845 
Q 1069 694 975 541 
L 3222 541 
z
" id="ArialMT-32" transform="scale(0.015625)"/>
        <path d="M 266 2259 
Q 266 3072 433 3567 
Q 600 4063 929 4331 
Q 1259 4600 1759 4600 
Q 2128 4600 2406 4451 
Q 2684 4303 2865 4023 
Q 3047 3744 3150 3342 
Q 3253 2941 3253 2259 
Q 3253 1453 3087 958 
Q 2922 463 2592 192 
Q 2263 -78 1759 -78 
Q 1097 -78 719 397 
Q 266 969 266 2259 
z
M 844 2259 
Q 844 1131 1108 757 
Q 1372 384 1759 384 
Q 2147 384 2411 759 
Q 2675 1134 2675 2259 
Q 2675 3391 2411 3762 
Q 2147 4134 1753 4134 
Q 1366 4134 1134 3806 
Q 844 3388 844 2259 
z
" id="ArialMT-30" transform="scale(0.015625)"/>
       </defs>
       <use xlink:href="#ArialMT-32"/>
       <use x="55.615234" xlink:href="#ArialMT-30"/>
       <use x="111.230469" xlink:href="#ArialMT-30"/>
       <use x="166.845703" xlink:href="#ArialMT-30"/>
      </g>
     </g>
    </g>
    <g id="xtick_2">
     <g id="line2d_2">
      <g>
       <use style="stroke:#000000;stroke-width:0.8;" x="226.884745" xlink:href="#md67191ebd3" y="269.88"/>
      </g>
     </g>
     <g id="text_2">
      <!-- 4000 -->
      <g transform="translate(211.31412 286.900937)scale(0.14 -0.14)">
       <defs>
        <path d="M 2069 0 
L 2069 1097 
L 81 1097 
L 81 1613 
L 2172 4581 
L 2631 4581 
L 2631 1613 
L 3250 1613 
L 3250 1097 
L 2631 1097 
L 2631 0 
L 2069 0 
z
M 2069 1613 
L 2069 3678 
L 634 1613 
L 2069 1613 
z
" id="ArialMT-34" transform="scale(0.015625)"/>
       </defs>
       <use xlink:href="#ArialMT-34"/>
       <use x="55.615234" xlink:href="#ArialMT-30"/>
       <use x="111.230469" xlink:href="#ArialMT-30"/>
       <use x="166.845703" xlink:href="#ArialMT-30"/>
      </g>
     </g>
    </g>
    <g id="xtick_3">
     <g id="line2d_3">
      <g>
       <use style="stroke:#000000;stroke-width:0.8;" x="313.909515" xlink:href="#md67191ebd3" y="269.88"/>
      </g>
     </g>
     <g id="text_3">
      <!-- 6000 -->
      <g transform="translate(298.33889 286.900937)scale(0.14 -0.14)">
       <defs>
        <path d="M 3184 3459 
L 2625 3416 
Q 2550 3747 2413 3897 
Q 2184 4138 1850 4138 
Q 1581 4138 1378 3988 
Q 1113 3794 959 3422 
Q 806 3050 800 2363 
Q 1003 2672 1297 2822 
Q 1591 2972 1913 2972 
Q 2475 2972 2870 2558 
Q 3266 2144 3266 1488 
Q 3266 1056 3080 686 
Q 2894 316 2569 119 
Q 2244 -78 1831 -78 
Q 1128 -78 684 439 
Q 241 956 241 2144 
Q 241 3472 731 4075 
Q 1159 4600 1884 4600 
Q 2425 4600 2770 4297 
Q 3116 3994 3184 3459 
z
M 888 1484 
Q 888 1194 1011 928 
Q 1134 663 1356 523 
Q 1578 384 1822 384 
Q 2178 384 2434 671 
Q 2691 959 2691 1453 
Q 2691 1928 2437 2201 
Q 2184 2475 1800 2475 
Q 1419 2475 1153 2201 
Q 888 1928 888 1484 
z
" id="ArialMT-36" transform="scale(0.015625)"/>
       </defs>
       <use xlink:href="#ArialMT-36"/>
       <use x="55.615234" xlink:href="#ArialMT-30"/>
       <use x="111.230469" xlink:href="#ArialMT-30"/>
       <use x="166.845703" xlink:href="#ArialMT-30"/>
      </g>
     </g>
    </g>
    <g id="xtick_4">
     <g id="line2d_4">
      <g>
       <use style="stroke:#000000;stroke-width:0.8;" x="400.934284" xlink:href="#md67191ebd3" y="269.88"/>
      </g>
     </g>
     <g id="text_4">
      <!-- 8000 -->
      <g transform="translate(385.363659 286.900937)scale(0.14 -0.14)">
       <defs>
        <path d="M 1131 2484 
Q 781 2613 612 2850 
Q 444 3088 444 3419 
Q 444 3919 803 4259 
Q 1163 4600 1759 4600 
Q 2359 4600 2725 4251 
Q 3091 3903 3091 3403 
Q 3091 3084 2923 2848 
Q 2756 2613 2416 2484 
Q 2838 2347 3058 2040 
Q 3278 1734 3278 1309 
Q 3278 722 2862 322 
Q 2447 -78 1769 -78 
Q 1091 -78 675 323 
Q 259 725 259 1325 
Q 259 1772 486 2073 
Q 713 2375 1131 2484 
z
M 1019 3438 
Q 1019 3113 1228 2906 
Q 1438 2700 1772 2700 
Q 2097 2700 2305 2904 
Q 2513 3109 2513 3406 
Q 2513 3716 2298 3927 
Q 2084 4138 1766 4138 
Q 1444 4138 1231 3931 
Q 1019 3725 1019 3438 
z
M 838 1322 
Q 838 1081 952 856 
Q 1066 631 1291 507 
Q 1516 384 1775 384 
Q 2178 384 2440 643 
Q 2703 903 2703 1303 
Q 2703 1709 2433 1975 
Q 2163 2241 1756 2241 
Q 1359 2241 1098 1978 
Q 838 1716 838 1322 
z
" id="ArialMT-38" transform="scale(0.015625)"/>
       </defs>
       <use xlink:href="#ArialMT-38"/>
       <use x="55.615234" xlink:href="#ArialMT-30"/>
       <use x="111.230469" xlink:href="#ArialMT-30"/>
       <use x="166.845703" xlink:href="#ArialMT-30"/>
      </g>
     </g>
    </g>
    <g id="text_5">
     <!-- number of atoms -->
     <g transform="translate(179.934643 303.704375)scale(0.14 -0.14)">
      <defs>
       <path d="M 422 0 
L 422 3319 
L 928 3319 
L 928 2847 
Q 1294 3394 1984 3394 
Q 2284 3394 2536 3286 
Q 2788 3178 2913 3003 
Q 3038 2828 3088 2588 
Q 3119 2431 3119 2041 
L 3119 0 
L 2556 0 
L 2556 2019 
Q 2556 2363 2490 2533 
Q 2425 2703 2258 2804 
Q 2091 2906 1866 2906 
Q 1506 2906 1245 2678 
Q 984 2450 984 1813 
L 984 0 
L 422 0 
z
" id="ArialMT-6e" transform="scale(0.015625)"/>
       <path d="M 2597 0 
L 2597 488 
Q 2209 -75 1544 -75 
Q 1250 -75 995 37 
Q 741 150 617 320 
Q 494 491 444 738 
Q 409 903 409 1263 
L 409 3319 
L 972 3319 
L 972 1478 
Q 972 1038 1006 884 
Q 1059 663 1231 536 
Q 1403 409 1656 409 
Q 1909 409 2131 539 
Q 2353 669 2445 892 
Q 2538 1116 2538 1541 
L 2538 3319 
L 3100 3319 
L 3100 0 
L 2597 0 
z
" id="ArialMT-75" transform="scale(0.015625)"/>
       <path d="M 422 0 
L 422 3319 
L 925 3319 
L 925 2853 
Q 1081 3097 1340 3245 
Q 1600 3394 1931 3394 
Q 2300 3394 2536 3241 
Q 2772 3088 2869 2813 
Q 3263 3394 3894 3394 
Q 4388 3394 4653 3120 
Q 4919 2847 4919 2278 
L 4919 0 
L 4359 0 
L 4359 2091 
Q 4359 2428 4304 2576 
Q 4250 2725 4106 2815 
Q 3963 2906 3769 2906 
Q 3419 2906 3187 2673 
Q 2956 2441 2956 1928 
L 2956 0 
L 2394 0 
L 2394 2156 
Q 2394 2531 2256 2718 
Q 2119 2906 1806 2906 
Q 1569 2906 1367 2781 
Q 1166 2656 1075 2415 
Q 984 2175 984 1722 
L 984 0 
L 422 0 
z
" id="ArialMT-6d" transform="scale(0.015625)"/>
       <path d="M 941 0 
L 419 0 
L 419 4581 
L 981 4581 
L 981 2947 
Q 1338 3394 1891 3394 
Q 2197 3394 2470 3270 
Q 2744 3147 2920 2923 
Q 3097 2700 3197 2384 
Q 3297 2069 3297 1709 
Q 3297 856 2875 390 
Q 2453 -75 1863 -75 
Q 1275 -75 941 416 
L 941 0 
z
M 934 1684 
Q 934 1088 1097 822 
Q 1363 388 1816 388 
Q 2184 388 2453 708 
Q 2722 1028 2722 1663 
Q 2722 2313 2464 2622 
Q 2206 2931 1841 2931 
Q 1472 2931 1203 2611 
Q 934 2291 934 1684 
z
" id="ArialMT-62" transform="scale(0.015625)"/>
       <path d="M 2694 1069 
L 3275 997 
Q 3138 488 2766 206 
Q 2394 -75 1816 -75 
Q 1088 -75 661 373 
Q 234 822 234 1631 
Q 234 2469 665 2931 
Q 1097 3394 1784 3394 
Q 2450 3394 2872 2941 
Q 3294 2488 3294 1666 
Q 3294 1616 3291 1516 
L 816 1516 
Q 847 969 1125 678 
Q 1403 388 1819 388 
Q 2128 388 2347 550 
Q 2566 713 2694 1069 
z
M 847 1978 
L 2700 1978 
Q 2663 2397 2488 2606 
Q 2219 2931 1791 2931 
Q 1403 2931 1139 2672 
Q 875 2413 847 1978 
z
" id="ArialMT-65" transform="scale(0.015625)"/>
       <path d="M 416 0 
L 416 3319 
L 922 3319 
L 922 2816 
Q 1116 3169 1280 3281 
Q 1444 3394 1641 3394 
Q 1925 3394 2219 3213 
L 2025 2691 
Q 1819 2813 1613 2813 
Q 1428 2813 1281 2702 
Q 1134 2591 1072 2394 
Q 978 2094 978 1738 
L 978 0 
L 416 0 
z
" id="ArialMT-72" transform="scale(0.015625)"/>
       <path id="ArialMT-20" transform="scale(0.015625)"/>
       <path d="M 213 1659 
Q 213 2581 725 3025 
Q 1153 3394 1769 3394 
Q 2453 3394 2887 2945 
Q 3322 2497 3322 1706 
Q 3322 1066 3130 698 
Q 2938 331 2570 128 
Q 2203 -75 1769 -75 
Q 1072 -75 642 372 
Q 213 819 213 1659 
z
M 791 1659 
Q 791 1022 1069 705 
Q 1347 388 1769 388 
Q 2188 388 2466 706 
Q 2744 1025 2744 1678 
Q 2744 2294 2464 2611 
Q 2184 2928 1769 2928 
Q 1347 2928 1069 2612 
Q 791 2297 791 1659 
z
" id="ArialMT-6f" transform="scale(0.015625)"/>
       <path d="M 556 0 
L 556 2881 
L 59 2881 
L 59 3319 
L 556 3319 
L 556 3672 
Q 556 4006 616 4169 
Q 697 4388 901 4523 
Q 1106 4659 1475 4659 
Q 1713 4659 2000 4603 
L 1916 4113 
Q 1741 4144 1584 4144 
Q 1328 4144 1222 4034 
Q 1116 3925 1116 3625 
L 1116 3319 
L 1763 3319 
L 1763 2881 
L 1116 2881 
L 1116 0 
L 556 0 
z
" id="ArialMT-66" transform="scale(0.015625)"/>
       <path d="M 2588 409 
Q 2275 144 1986 34 
Q 1697 -75 1366 -75 
Q 819 -75 525 192 
Q 231 459 231 875 
Q 231 1119 342 1320 
Q 453 1522 633 1644 
Q 813 1766 1038 1828 
Q 1203 1872 1538 1913 
Q 2219 1994 2541 2106 
Q 2544 2222 2544 2253 
Q 2544 2597 2384 2738 
Q 2169 2928 1744 2928 
Q 1347 2928 1158 2789 
Q 969 2650 878 2297 
L 328 2372 
Q 403 2725 575 2942 
Q 747 3159 1072 3276 
Q 1397 3394 1825 3394 
Q 2250 3394 2515 3294 
Q 2781 3194 2906 3042 
Q 3031 2891 3081 2659 
Q 3109 2516 3109 2141 
L 3109 1391 
Q 3109 606 3145 398 
Q 3181 191 3288 0 
L 2700 0 
Q 2613 175 2588 409 
z
M 2541 1666 
Q 2234 1541 1622 1453 
Q 1275 1403 1131 1340 
Q 988 1278 909 1158 
Q 831 1038 831 891 
Q 831 666 1001 516 
Q 1172 366 1500 366 
Q 1825 366 2078 508 
Q 2331 650 2450 897 
Q 2541 1088 2541 1459 
L 2541 1666 
z
" id="ArialMT-61" transform="scale(0.015625)"/>
       <path d="M 1650 503 
L 1731 6 
Q 1494 -44 1306 -44 
Q 1000 -44 831 53 
Q 663 150 594 308 
Q 525 466 525 972 
L 525 2881 
L 113 2881 
L 113 3319 
L 525 3319 
L 525 4141 
L 1084 4478 
L 1084 3319 
L 1650 3319 
L 1650 2881 
L 1084 2881 
L 1084 941 
Q 1084 700 1114 631 
Q 1144 563 1211 522 
Q 1278 481 1403 481 
Q 1497 481 1650 503 
z
" id="ArialMT-74" transform="scale(0.015625)"/>
       <path d="M 197 991 
L 753 1078 
Q 800 744 1014 566 
Q 1228 388 1613 388 
Q 2000 388 2187 545 
Q 2375 703 2375 916 
Q 2375 1106 2209 1216 
Q 2094 1291 1634 1406 
Q 1016 1563 777 1677 
Q 538 1791 414 1992 
Q 291 2194 291 2438 
Q 291 2659 392 2848 
Q 494 3038 669 3163 
Q 800 3259 1026 3326 
Q 1253 3394 1513 3394 
Q 1903 3394 2198 3281 
Q 2494 3169 2634 2976 
Q 2775 2784 2828 2463 
L 2278 2388 
Q 2241 2644 2061 2787 
Q 1881 2931 1553 2931 
Q 1166 2931 1000 2803 
Q 834 2675 834 2503 
Q 834 2394 903 2306 
Q 972 2216 1119 2156 
Q 1203 2125 1616 2013 
Q 2213 1853 2448 1751 
Q 2684 1650 2818 1456 
Q 2953 1263 2953 975 
Q 2953 694 2789 445 
Q 2625 197 2315 61 
Q 2006 -75 1616 -75 
Q 969 -75 630 194 
Q 291 463 197 991 
z
" id="ArialMT-73" transform="scale(0.015625)"/>
      </defs>
      <use xlink:href="#ArialMT-6e"/>
      <use x="55.615234" xlink:href="#ArialMT-75"/>
      <use x="111.230469" xlink:href="#ArialMT-6d"/>
      <use x="194.53125" xlink:href="#ArialMT-62"/>
      <use x="250.146484" xlink:href="#ArialMT-65"/>
      <use x="305.761719" xlink:href="#ArialMT-72"/>
      <use x="339.0625" xlink:href="#ArialMT-20"/>
      <use x="366.845703" xlink:href="#ArialMT-6f"/>
      <use x="422.460938" xlink:href="#ArialMT-66"/>
      <use x="450.244141" xlink:href="#ArialMT-20"/>
      <use x="478.027344" xlink:href="#ArialMT-61"/>
      <use x="533.642578" xlink:href="#ArialMT-74"/>
      <use x="561.425781" xlink:href="#ArialMT-6f"/>
      <use x="617.041016" xlink:href="#ArialMT-6d"/>
      <use x="700.341797" xlink:href="#ArialMT-73"/>
     </g>
    </g>
   </g>
   <g id="matplotlib.axis_2">
    <g id="ytick_1">
     <g id="line2d_5">
      <defs>
       <path d="M 0 0 
L -3.5 0 
" id="mfbd4fc350b" style="stroke:#000000;stroke-width:0.8;"/>
      </defs>
      <g>
       <use style="stroke:#000000;stroke-width:0.8;" x="55.62" xlink:href="#mfbd4fc350b" y="258.333856"/>
      </g>
     </g>
     <g id="text_6">
      <!-- 0 -->
      <g transform="translate(40.834688 263.344325)scale(0.14 -0.14)">
       <use xlink:href="#ArialMT-30"/>
      </g>
     </g>
    </g>
    <g id="ytick_2">
     <g id="line2d_6">
      <g>
       <use style="stroke:#000000;stroke-width:0.8;" x="55.62" xlink:href="#mfbd4fc350b" y="215.765482"/>
      </g>
     </g>
     <g id="text_7">
      <!-- 5 -->
      <g transform="translate(40.834688 220.775951)scale(0.14 -0.14)">
       <defs>
        <path d="M 266 1200 
L 856 1250 
Q 922 819 1161 601 
Q 1400 384 1738 384 
Q 2144 384 2425 690 
Q 2706 997 2706 1503 
Q 2706 1984 2436 2262 
Q 2166 2541 1728 2541 
Q 1456 2541 1237 2417 
Q 1019 2294 894 2097 
L 366 2166 
L 809 4519 
L 3088 4519 
L 3088 3981 
L 1259 3981 
L 1013 2750 
Q 1425 3038 1878 3038 
Q 2478 3038 2890 2622 
Q 3303 2206 3303 1553 
Q 3303 931 2941 478 
Q 2500 -78 1738 -78 
Q 1113 -78 717 272 
Q 322 622 266 1200 
z
" id="ArialMT-35" transform="scale(0.015625)"/>
       </defs>
       <use xlink:href="#ArialMT-35"/>
      </g>
     </g>
    </g>
    <g id="ytick_3">
     <g id="line2d_7">
      <g>
       <use style="stroke:#000000;stroke-width:0.8;" x="55.62" xlink:href="#mfbd4fc350b" y="173.197108"/>
      </g>
     </g>
     <g id="text_8">
      <!-- 10 -->
      <g transform="translate(33.049375 178.207577)scale(0.14 -0.14)">
       <defs>
        <path d="M 2384 0 
L 1822 0 
L 1822 3584 
Q 1619 3391 1289 3197 
Q 959 3003 697 2906 
L 697 3450 
Q 1169 3672 1522 3987 
Q 1875 4303 2022 4600 
L 2384 4600 
L 2384 0 
z
" id="ArialMT-31" transform="scale(0.015625)"/>
       </defs>
       <use xlink:href="#ArialMT-31"/>
       <use x="55.615234" xlink:href="#ArialMT-30"/>
      </g>
     </g>
    </g>
    <g id="ytick_4">
     <g id="line2d_8">
      <g>
       <use style="stroke:#000000;stroke-width:0.8;" x="55.62" xlink:href="#mfbd4fc350b" y="130.628734"/>
      </g>
     </g>
     <g id="text_9">
      <!-- 15 -->
      <g transform="translate(33.049375 135.639203)scale(0.14 -0.14)">
       <use xlink:href="#ArialMT-31"/>
       <use x="55.615234" xlink:href="#ArialMT-35"/>
      </g>
     </g>
    </g>
    <g id="ytick_5">
     <g id="line2d_9">
      <g>
       <use style="stroke:#000000;stroke-width:0.8;" x="55.62" xlink:href="#mfbd4fc350b" y="88.06036"/>
      </g>
     </g>
     <g id="text_10">
      <!-- 20 -->
      <g transform="translate(33.049375 93.070829)scale(0.14 -0.14)">
       <use xlink:href="#ArialMT-32"/>
       <use x="55.615234" xlink:href="#ArialMT-30"/>
      </g>
     </g>
    </g>
    <g id="ytick_6">
     <g id="line2d_10">
      <g>
       <use style="stroke:#000000;stroke-width:0.8;" x="55.62" xlink:href="#mfbd4fc350b" y="45.491986"/>
      </g>
     </g>
     <g id="text_11">
      <!-- 25 -->
      <g transform="translate(33.049375 50.502455)scale(0.14 -0.14)">
       <use xlink:href="#ArialMT-32"/>
       <use x="55.615234" xlink:href="#ArialMT-35"/>
      </g>
     </g>
    </g>
    <g id="text_12">
     <!-- time [s] -->
     <g transform="translate(26.266875 165.0575)rotate(-90)scale(0.14 -0.14)">
      <defs>
       <path d="M 425 3934 
L 425 4581 
L 988 4581 
L 988 3934 
L 425 3934 
z
M 425 0 
L 425 3319 
L 988 3319 
L 988 0 
L 425 0 
z
" id="ArialMT-69" transform="scale(0.015625)"/>
       <path d="M 434 -1272 
L 434 4581 
L 1675 4581 
L 1675 4116 
L 997 4116 
L 997 -806 
L 1675 -806 
L 1675 -1272 
L 434 -1272 
z
" id="ArialMT-5b" transform="scale(0.015625)"/>
       <path d="M 1363 -1272 
L 122 -1272 
L 122 -806 
L 800 -806 
L 800 4116 
L 122 4116 
L 122 4581 
L 1363 4581 
L 1363 -1272 
z
" id="ArialMT-5d" transform="scale(0.015625)"/>
      </defs>
      <use xlink:href="#ArialMT-74"/>
      <use x="27.783203" xlink:href="#ArialMT-69"/>
      <use x="50" xlink:href="#ArialMT-6d"/>
      <use x="133.300781" xlink:href="#ArialMT-65"/>
      <use x="188.916016" xlink:href="#ArialMT-20"/>
      <use x="216.699219" xlink:href="#ArialMT-5b"/>
      <use x="244.482422" xlink:href="#ArialMT-73"/>
      <use x="294.482422" xlink:href="#ArialMT-5d"/>
     </g>
    </g>
   </g>
   <g id="line2d_11">
    <path clip-path="url(#pd80c3d1a9a)" d="M 64.908806 258.240146 
L 82.529146 258.17345 
L 100.149487 258.125514 
L 117.769827 258.06103 
L 135.390167 258.015418 
L 153.010507 257.944184 
L 170.630847 257.889642 
L 188.251187 257.826161 
L 205.871527 257.769316 
L 223.491867 257.700562 
L 241.112207 257.676212 
L 258.732548 257.607884 
L 276.352888 257.544782 
L 293.973228 257.478986 
L 311.593568 257.372203 
L 329.213908 257.3415 
L 346.834248 257.352358 
L 364.454588 257.291062 
L 382.074928 257.230823 
L 399.695268 257.099826 
" style="fill:none;stroke:#0d3b66;stroke-linecap:square;stroke-width:1.5;"/>
    <defs>
     <path d="M 0 1.5 
C 0.397805 1.5 0.77937 1.341951 1.06066 1.06066 
C 1.341951 0.77937 1.5 0.397805 1.5 0 
C 1.5 -0.397805 1.341951 -0.77937 1.06066 -1.06066 
C 0.77937 -1.341951 0.397805 -1.5 0 -1.5 
C -0.397805 -1.5 -0.77937 -1.341951 -1.06066 -1.06066 
C -1.341951 -0.77937 -1.5 -0.397805 -1.5 0 
C -1.5 0.397805 -1.341951 0.77937 -1.06066 1.06066 
C -0.77937 1.341951 -0.397805 1.5 0 1.5 
z
" id="m229e61c8b2" style="stroke:#0d3b66;"/>
    </defs>
    <g clip-path="url(#pd80c3d1a9a)">
     <use style="fill:#0d3b66;stroke:#0d3b66;" x="64.908806" xlink:href="#m229e61c8b2" y="258.240146"/>
     <use style="fill:#0d3b66;stroke:#0d3b66;" x="82.529146" xlink:href="#m229e61c8b2" y="258.17345"/>
     <use style="fill:#0d3b66;stroke:#0d3b66;" x="100.149487" xlink:href="#m229e61c8b2" y="258.125514"/>
     <use style="fill:#0d3b66;stroke:#0d3b66;" x="117.769827" xlink:href="#m229e61c8b2" y="258.06103"/>
     <use style="fill:#0d3b66;stroke:#0d3b66;" x="135.390167" xlink:href="#m229e61c8b2" y="258.015418"/>
     <use style="fill:#0d3b66;stroke:#0d3b66;" x="153.010507" xlink:href="#m229e61c8b2" y="257.944184"/>
     <use style="fill:#0d3b66;stroke:#0d3b66;" x="170.630847" xlink:href="#m229e61c8b2" y="257.889642"/>
     <use style="fill:#0d3b66;stroke:#0d3b66;" x="188.251187" xlink:href="#m229e61c8b2" y="257.826161"/>
     <use style="fill:#0d3b66;stroke:#0d3b66;" x="205.871527" xlink:href="#m229e61c8b2" y="257.769316"/>
     <use style="fill:#0d3b66;stroke:#0d3b66;" x="223.491867" xlink:href="#m229e61c8b2" y="257.700562"/>
     <use style="fill:#0d3b66;stroke:#0d3b66;" x="241.112207" xlink:href="#m229e61c8b2" y="257.676212"/>
     <use style="fill:#0d3b66;stroke:#0d3b66;" x="258.732548" xlink:href="#m229e61c8b2" y="257.607884"/>
     <use style="fill:#0d3b66;stroke:#0d3b66;" x="276.352888" xlink:href="#m229e61c8b2" y="257.544782"/>
     <use style="fill:#0d3b66;stroke:#0d3b66;" x="293.973228" xlink:href="#m229e61c8b2" y="257.478986"/>
     <use style="fill:#0d3b66;stroke:#0d3b66;" x="311.593568" xlink:href="#m229e61c8b2" y="257.372203"/>
     <use style="fill:#0d3b66;stroke:#0d3b66;" x="329.213908" xlink:href="#m229e61c8b2" y="257.3415"/>
     <use style="fill:#0d3b66;stroke:#0d3b66;" x="346.834248" xlink:href="#m229e61c8b2" y="257.352358"/>
     <use style="fill:#0d3b66;stroke:#0d3b66;" x="364.454588" xlink:href="#m229e61c8b2" y="257.291062"/>
     <use style="fill:#0d3b66;stroke:#0d3b66;" x="382.074928" xlink:href="#m229e61c8b2" y="257.230823"/>
     <use style="fill:#0d3b66;stroke:#0d3b66;" x="399.695268" xlink:href="#m229e61c8b2" y="257.099826"/>
    </g>
   </g>
   <g id="line2d_12">
    <path clip-path="url(#pd80c3d1a9a)" d="M 64.908806 258.258125 
L 82.529146 258.040223 
L 100.149487 257.711919 
L 117.769827 257.199482 
L 135.390167 256.485569 
L 153.010507 255.653436 
L 170.630847 254.657869 
L 188.251187 253.479346 
L 205.871527 252.19239 
L 223.491867 250.781717 
L 241.112207 249.01894 
L 258.732548 247.223177 
L 276.352888 245.294604 
L 293.973228 243.11016 
L 311.593568 240.778266 
L 329.213908 238.514824 
L 346.834248 235.991613 
L 364.454588 233.343598 
L 382.074928 230.062005 
L 399.695268 227.176686 
" style="fill:none;stroke:#dbad6a;stroke-linecap:square;stroke-width:1.5;"/>
    <defs>
     <path d="M 0 1.5 
C 0.397805 1.5 0.77937 1.341951 1.06066 1.06066 
C 1.341951 0.77937 1.5 0.397805 1.5 0 
C 1.5 -0.397805 1.341951 -0.77937 1.06066 -1.06066 
C 0.77937 -1.341951 0.397805 -1.5 0 -1.5 
C -0.397805 -1.5 -0.77937 -1.341951 -1.06066 -1.06066 
C -1.341951 -0.77937 -1.5 -0.397805 -1.5 0 
C -1.5 0.397805 -1.341951 0.77937 -1.06066 1.06066 
C -0.77937 1.341951 -0.397805 1.5 0 1.5 
z
" id="md0198a30fe" style="stroke:#dbad6a;"/>
    </defs>
    <g clip-path="url(#pd80c3d1a9a)">
     <use style="fill:#dbad6a;stroke:#dbad6a;" x="64.908806" xlink:href="#md0198a30fe" y="258.258125"/>
     <use style="fill:#dbad6a;stroke:#dbad6a;" x="82.529146" xlink:href="#md0198a30fe" y="258.040223"/>
     <use style="fill:#dbad6a;stroke:#dbad6a;" x="100.149487" xlink:href="#md0198a30fe" y="257.711919"/>
     <use style="fill:#dbad6a;stroke:#dbad6a;" x="117.769827" xlink:href="#md0198a30fe" y="257.199482"/>
     <use style="fill:#dbad6a;stroke:#dbad6a;" x="135.390167" xlink:href="#md0198a30fe" y="256.485569"/>
     <use style="fill:#dbad6a;stroke:#dbad6a;" x="153.010507" xlink:href="#md0198a30fe" y="255.653436"/>
     <use style="fill:#dbad6a;stroke:#dbad6a;" x="170.630847" xlink:href="#md0198a30fe" y="254.657869"/>
     <use style="fill:#dbad6a;stroke:#dbad6a;" x="188.251187" xlink:href="#md0198a30fe" y="253.479346"/>
     <use style="fill:#dbad6a;stroke:#dbad6a;" x="205.871527" xlink:href="#md0198a30fe" y="252.19239"/>
     <use style="fill:#dbad6a;stroke:#dbad6a;" x="223.491867" xlink:href="#md0198a30fe" y="250.781717"/>
     <use style="fill:#dbad6a;stroke:#dbad6a;" x="241.112207" xlink:href="#md0198a30fe" y="249.01894"/>
     <use style="fill:#dbad6a;stroke:#dbad6a;" x="258.732548" xlink:href="#md0198a30fe" y="247.223177"/>
     <use style="fill:#dbad6a;stroke:#dbad6a;" x="276.352888" xlink:href="#md0198a30fe" y="245.294604"/>
     <use style="fill:#dbad6a;stroke:#dbad6a;" x="293.973228" xlink:href="#md0198a30fe" y="243.11016"/>
     <use style="fill:#dbad6a;stroke:#dbad6a;" x="311.593568" xlink:href="#md0198a30fe" y="240.778266"/>
     <use style="fill:#dbad6a;stroke:#dbad6a;" x="329.213908" xlink:href="#md0198a30fe" y="238.514824"/>
     <use style="fill:#dbad6a;stroke:#dbad6a;" x="346.834248" xlink:href="#md0198a30fe" y="235.991613"/>
     <use style="fill:#dbad6a;stroke:#dbad6a;" x="364.454588" xlink:href="#md0198a30fe" y="233.343598"/>
     <use style="fill:#dbad6a;stroke:#dbad6a;" x="382.074928" xlink:href="#md0198a30fe" y="230.062005"/>
     <use style="fill:#dbad6a;stroke:#dbad6a;" x="399.695268" xlink:href="#md0198a30fe" y="227.176686"/>
    </g>
   </g>
   <g id="line2d_13">
    <path clip-path="url(#pd80c3d1a9a)" d="M 64.908806 252.145047 
L 82.529146 243.351482 
L 100.149487 234.239228 
L 117.769827 224.557706 
L 135.390167 214.338621 
L 153.010507 204.572321 
L 170.630847 194.677742 
L 188.251187 184.543094 
L 205.871527 174.948411 
L 223.491867 165.340354 
L 241.112207 154.722562 
L 258.732548 144.444477 
L 276.352888 134.672517 
L 293.973228 123.957564 
L 311.593568 113.243056 
L 329.213908 103.932192 
L 346.834248 93.27947 
L 364.454588 83.373648 
L 382.074928 71.520994 
L 399.695268 62.293979 
" style="fill:none;stroke:#0e9595;stroke-linecap:square;stroke-width:1.5;"/>
    <defs>
     <path d="M 0 1.5 
C 0.397805 1.5 0.77937 1.341951 1.06066 1.06066 
C 1.341951 0.77937 1.5 0.397805 1.5 0 
C 1.5 -0.397805 1.341951 -0.77937 1.06066 -1.06066 
C 0.77937 -1.341951 0.397805 -1.5 0 -1.5 
C -0.397805 -1.5 -0.77937 -1.341951 -1.06066 -1.06066 
C -1.341951 -0.77937 -1.5 -0.397805 -1.5 0 
C -1.5 0.397805 -1.341951 0.77937 -1.06066 1.06066 
C -0.77937 1.341951 -0.397805 1.5 0 1.5 
z
" id="m87f6c8dd5f" style="stroke:#0e9595;"/>
    </defs>
    <g clip-path="url(#pd80c3d1a9a)">
     <use style="fill:#0e9595;stroke:#0e9595;" x="64.908806" xlink:href="#m87f6c8dd5f" y="252.145047"/>
     <use style="fill:#0e9595;stroke:#0e9595;" x="82.529146" xlink:href="#m87f6c8dd5f" y="243.351482"/>
     <use style="fill:#0e9595;stroke:#0e9595;" x="100.149487" xlink:href="#m87f6c8dd5f" y="234.239228"/>
     <use style="fill:#0e9595;stroke:#0e9595;" x="117.769827" xlink:href="#m87f6c8dd5f" y="224.557706"/>
     <use style="fill:#0e9595;stroke:#0e9595;" x="135.390167" xlink:href="#m87f6c8dd5f" y="214.338621"/>
     <use style="fill:#0e9595;stroke:#0e9595;" x="153.010507" xlink:href="#m87f6c8dd5f" y="204.572321"/>
     <use style="fill:#0e9595;stroke:#0e9595;" x="170.630847" xlink:href="#m87f6c8dd5f" y="194.677742"/>
     <use style="fill:#0e9595;stroke:#0e9595;" x="188.251187" xlink:href="#m87f6c8dd5f" y="184.543094"/>
     <use style="fill:#0e9595;stroke:#0e9595;" x="205.871527" xlink:href="#m87f6c8dd5f" y="174.948411"/>
     <use style="fill:#0e9595;stroke:#0e9595;" x="223.491867" xlink:href="#m87f6c8dd5f" y="165.340354"/>
     <use style="fill:#0e9595;stroke:#0e9595;" x="241.112207" xlink:href="#m87f6c8dd5f" y="154.722562"/>
     <use style="fill:#0e9595;stroke:#0e9595;" x="258.732548" xlink:href="#m87f6c8dd5f" y="144.444477"/>
     <use style="fill:#0e9595;stroke:#0e9595;" x="276.352888" xlink:href="#m87f6c8dd5f" y="134.672517"/>
     <use style="fill:#0e9595;stroke:#0e9595;" x="293.973228" xlink:href="#m87f6c8dd5f" y="123.957564"/>
     <use style="fill:#0e9595;stroke:#0e9595;" x="311.593568" xlink:href="#m87f6c8dd5f" y="113.243056"/>
     <use style="fill:#0e9595;stroke:#0e9595;" x="329.213908" xlink:href="#m87f6c8dd5f" y="103.932192"/>
     <use style="fill:#0e9595;stroke:#0e9595;" x="346.834248" xlink:href="#m87f6c8dd5f" y="93.27947"/>
     <use style="fill:#0e9595;stroke:#0e9595;" x="364.454588" xlink:href="#m87f6c8dd5f" y="83.373648"/>
     <use style="fill:#0e9595;stroke:#0e9595;" x="382.074928" xlink:href="#m87f6c8dd5f" y="71.520994"/>
     <use style="fill:#0e9595;stroke:#0e9595;" x="399.695268" xlink:href="#m87f6c8dd5f" y="62.293979"/>
    </g>
   </g>
   <g id="line2d_14">
    <path clip-path="url(#pd80c3d1a9a)" d="M 64.908806 251.975605 
L 82.529146 242.897444 
L 100.149487 233.408949 
L 117.769827 223.150507 
L 135.390167 212.171897 
L 153.010507 201.50223 
L 170.630847 190.557542 
L 188.251187 179.180889 
L 205.871527 168.242406 
L 223.491867 157.154922 
L 241.112207 144.750002 
L 258.732548 132.607827 
L 276.352888 120.84419 
L 293.973228 107.878998 
L 311.593568 94.725814 
L 329.213908 83.120804 
L 346.834248 69.955729 
L 364.454588 57.340596 
L 382.074928 42.146111 
L 399.695268 29.90278 
" style="fill:none;stroke:#bf4e30;stroke-linecap:square;stroke-width:1.5;"/>
    <defs>
     <path d="M 0 1.5 
C 0.397805 1.5 0.77937 1.341951 1.06066 1.06066 
C 1.341951 0.77937 1.5 0.397805 1.5 0 
C 1.5 -0.397805 1.341951 -0.77937 1.06066 -1.06066 
C 0.77937 -1.341951 0.397805 -1.5 0 -1.5 
C -0.397805 -1.5 -0.77937 -1.341951 -1.06066 -1.06066 
C -1.341951 -0.77937 -1.5 -0.397805 -1.5 0 
C -1.5 0.397805 -1.341951 0.77937 -1.06066 1.06066 
C -0.77937 1.341951 -0.397805 1.5 0 1.5 
z
" id="mab9323496e" style="stroke:#bf4e30;"/>
    </defs>
    <g clip-path="url(#pd80c3d1a9a)">
     <use style="fill:#bf4e30;stroke:#bf4e30;" x="64.908806" xlink:href="#mab9323496e" y="251.975605"/>
     <use style="fill:#bf4e30;stroke:#bf4e30;" x="82.529146" xlink:href="#mab9323496e" y="242.897444"/>
     <use style="fill:#bf4e30;stroke:#bf4e30;" x="100.149487" xlink:href="#mab9323496e" y="233.408949"/>
     <use style="fill:#bf4e30;stroke:#bf4e30;" x="117.769827" xlink:href="#mab9323496e" y="223.150507"/>
     <use style="fill:#bf4e30;stroke:#bf4e30;" x="135.390167" xlink:href="#mab9323496e" y="212.171897"/>
     <use style="fill:#bf4e30;stroke:#bf4e30;" x="153.010507" xlink:href="#mab9323496e" y="201.50223"/>
     <use style="fill:#bf4e30;stroke:#bf4e30;" x="170.630847" xlink:href="#mab9323496e" y="190.557542"/>
     <use style="fill:#bf4e30;stroke:#bf4e30;" x="188.251187" xlink:href="#mab9323496e" y="179.180889"/>
     <use style="fill:#bf4e30;stroke:#bf4e30;" x="205.871527" xlink:href="#mab9323496e" y="168.242406"/>
     <use style="fill:#bf4e30;stroke:#bf4e30;" x="223.491867" xlink:href="#mab9323496e" y="157.154922"/>
     <use style="fill:#bf4e30;stroke:#bf4e30;" x="241.112207" xlink:href="#mab9323496e" y="144.750002"/>
     <use style="fill:#bf4e30;stroke:#bf4e30;" x="258.732548" xlink:href="#mab9323496e" y="132.607827"/>
     <use style="fill:#bf4e30;stroke:#bf4e30;" x="276.352888" xlink:href="#mab9323496e" y="120.84419"/>
     <use style="fill:#bf4e30;stroke:#bf4e30;" x="293.973228" xlink:href="#mab9323496e" y="107.878998"/>
     <use style="fill:#bf4e30;stroke:#bf4e30;" x="311.593568" xlink:href="#mab9323496e" y="94.725814"/>
     <use style="fill:#bf4e30;stroke:#bf4e30;" x="329.213908" xlink:href="#mab9323496e" y="83.120804"/>
     <use style="fill:#bf4e30;stroke:#bf4e30;" x="346.834248" xlink:href="#mab9323496e" y="69.955729"/>
     <use style="fill:#bf4e30;stroke:#bf4e30;" x="364.454588" xlink:href="#mab9323496e" y="57.340596"/>
     <use style="fill:#bf4e30;stroke:#bf4e30;" x="382.074928" xlink:href="#mab9323496e" y="42.146111"/>
     <use style="fill:#bf4e30;stroke:#bf4e30;" x="399.695268" xlink:href="#mab9323496e" y="29.90278"/>
    </g>
   </g>
   <g id="patch_3">
    <path d="M 55.62 269.88 
L 55.62 15.12 
" style="fill:none;stroke:#000000;stroke-linecap:square;stroke-linejoin:miter;stroke-width:0.8;"/>
   </g>
   <g id="patch_4">
    <path d="M 409.288661 269.88 
L 409.288661 15.12 
" style="fill:none;stroke:#000000;stroke-linecap:square;stroke-linejoin:miter;stroke-width:0.8;"/>
   </g>
   <g id="patch_5">
    <path d="M 55.62 269.88 
L 409.288661 269.88 
" style="fill:none;stroke:#000000;stroke-linecap:square;stroke-linejoin:miter;stroke-width:0.8;"/>
   </g>
   <g id="patch_6">
    <path d="M 55.62 15.12 
L 409.288661 15.12 
" style="fill:none;stroke:#000000;stroke-linecap:square;stroke-linejoin:miter;stroke-width:0.8;"/>
   </g>
   <g id="legend_1">
    <g id="patch_7">
     <path d="M 65.42 105.53375 
L 159.2375 105.53375 
Q 162.0375 105.53375 162.0375 102.73375 
L 162.0375 24.92 
Q 162.0375 22.12 159.2375 22.12 
L 65.42 22.12 
Q 62.62 22.12 62.62 24.92 
L 62.62 102.73375 
Q 62.62 105.53375 65.42 105.53375 
z
" style="fill:#ffffff;opacity:0.8;stroke:#cccccc;stroke-linejoin:miter;"/>
    </g>
    <g id="line2d_15">
     <path d="M 68.22 32.840937 
L 96.22 32.840937 
" style="fill:none;stroke:#0d3b66;stroke-linecap:square;stroke-width:1.5;"/>
    </g>
    <g id="line2d_16">
     <g>
      <use style="fill:#0d3b66;stroke:#0d3b66;" x="82.22" xlink:href="#m229e61c8b2" y="32.840937"/>
     </g>
    </g>
    <g id="text_13">
     <!-- load -->
     <g transform="translate(107.42 37.740937)scale(0.14 -0.14)">
      <defs>
       <path d="M 409 0 
L 409 4581 
L 972 4581 
L 972 0 
L 409 0 
z
" id="ArialMT-6c" transform="scale(0.015625)"/>
       <path d="M 2575 0 
L 2575 419 
Q 2259 -75 1647 -75 
Q 1250 -75 917 144 
Q 584 363 401 755 
Q 219 1147 219 1656 
Q 219 2153 384 2558 
Q 550 2963 881 3178 
Q 1213 3394 1622 3394 
Q 1922 3394 2156 3267 
Q 2391 3141 2538 2938 
L 2538 4581 
L 3097 4581 
L 3097 0 
L 2575 0 
z
M 797 1656 
Q 797 1019 1065 703 
Q 1334 388 1700 388 
Q 2069 388 2326 689 
Q 2584 991 2584 1609 
Q 2584 2291 2321 2609 
Q 2059 2928 1675 2928 
Q 1300 2928 1048 2622 
Q 797 2316 797 1656 
z
" id="ArialMT-64" transform="scale(0.015625)"/>
      </defs>
      <use xlink:href="#ArialMT-6c"/>
      <use x="22.216797" xlink:href="#ArialMT-6f"/>
      <use x="77.832031" xlink:href="#ArialMT-61"/>
      <use x="133.447266" xlink:href="#ArialMT-64"/>
     </g>
    </g>
    <g id="line2d_17">
     <path d="M 68.22 52.644375 
L 96.22 52.644375 
" style="fill:none;stroke:#dbad6a;stroke-linecap:square;stroke-width:1.5;"/>
    </g>
    <g id="line2d_18">
     <g>
      <use style="fill:#dbad6a;stroke:#dbad6a;" x="82.22" xlink:href="#md0198a30fe" y="52.644375"/>
     </g>
    </g>
    <g id="text_14">
     <!-- process -->
     <g transform="translate(107.42 57.544375)scale(0.14 -0.14)">
      <defs>
       <path d="M 422 -1272 
L 422 3319 
L 934 3319 
L 934 2888 
Q 1116 3141 1344 3267 
Q 1572 3394 1897 3394 
Q 2322 3394 2647 3175 
Q 2972 2956 3137 2557 
Q 3303 2159 3303 1684 
Q 3303 1175 3120 767 
Q 2938 359 2589 142 
Q 2241 -75 1856 -75 
Q 1575 -75 1351 44 
Q 1128 163 984 344 
L 984 -1272 
L 422 -1272 
z
M 931 1641 
Q 931 1000 1190 694 
Q 1450 388 1819 388 
Q 2194 388 2461 705 
Q 2728 1022 2728 1688 
Q 2728 2322 2467 2637 
Q 2206 2953 1844 2953 
Q 1484 2953 1207 2617 
Q 931 2281 931 1641 
z
" id="ArialMT-70" transform="scale(0.015625)"/>
       <path d="M 2588 1216 
L 3141 1144 
Q 3050 572 2676 248 
Q 2303 -75 1759 -75 
Q 1078 -75 664 370 
Q 250 816 250 1647 
Q 250 2184 428 2587 
Q 606 2991 970 3192 
Q 1334 3394 1763 3394 
Q 2303 3394 2647 3120 
Q 2991 2847 3088 2344 
L 2541 2259 
Q 2463 2594 2264 2762 
Q 2066 2931 1784 2931 
Q 1359 2931 1093 2626 
Q 828 2322 828 1663 
Q 828 994 1084 691 
Q 1341 388 1753 388 
Q 2084 388 2306 591 
Q 2528 794 2588 1216 
z
" id="ArialMT-63" transform="scale(0.015625)"/>
      </defs>
      <use xlink:href="#ArialMT-70"/>
      <use x="55.615234" xlink:href="#ArialMT-72"/>
      <use x="88.916016" xlink:href="#ArialMT-6f"/>
      <use x="144.53125" xlink:href="#ArialMT-63"/>
      <use x="194.53125" xlink:href="#ArialMT-65"/>
      <use x="250.146484" xlink:href="#ArialMT-73"/>
      <use x="300.146484" xlink:href="#ArialMT-73"/>
     </g>
    </g>
    <g id="line2d_19">
     <path d="M 68.22 72.447812 
L 96.22 72.447812 
" style="fill:none;stroke:#0e9595;stroke-linecap:square;stroke-width:1.5;"/>
    </g>
    <g id="line2d_20">
     <g>
      <use style="fill:#0e9595;stroke:#0e9595;" x="82.22" xlink:href="#m87f6c8dd5f" y="72.447812"/>
     </g>
    </g>
    <g id="text_15">
     <!-- run -->
     <g transform="translate(107.42 77.347812)scale(0.14 -0.14)">
      <use xlink:href="#ArialMT-72"/>
      <use x="33.300781" xlink:href="#ArialMT-75"/>
      <use x="88.916016" xlink:href="#ArialMT-6e"/>
     </g>
    </g>
    <g id="line2d_21">
     <path d="M 68.22 92.25125 
L 96.22 92.25125 
" style="fill:none;stroke:#bf4e30;stroke-linecap:square;stroke-width:1.5;"/>
    </g>
    <g id="line2d_22">
     <g>
      <use style="fill:#bf4e30;stroke:#bf4e30;" x="82.22" xlink:href="#mab9323496e" y="92.25125"/>
     </g>
    </g>
    <g id="text_16">
     <!-- total -->
     <g transform="translate(107.42 97.15125)scale(0.14 -0.14)">
      <use xlink:href="#ArialMT-74"/>
      <use x="27.783203" xlink:href="#ArialMT-6f"/>
      <use x="83.398438" xlink:href="#ArialMT-74"/>
      <use x="111.181641" xlink:href="#ArialMT-61"/>
      <use x="166.796875" xlink:href="#ArialMT-6c"/>
     </g>
    </g>
   </g>
  </g>
 </g>
 <defs>
  <clipPath id="pd80c3d1a9a">
   <rect height="254.76" width="353.668661" x="55.62" y="15.12"/>
  </clipPath>
 </defs>
</svg>
