<?xml version="1.0" encoding="utf-8" standalone="no"?>
<!DOCTYPE svg PUBLIC "-//W3C//DTD SVG 1.1//EN"
  "http://www.w3.org/Graphics/SVG/1.1/DTD/svg11.dtd">
<svg height="324pt" version="1.1" viewBox="0 0 432 324" width="432pt" xmlns="http://www.w3.org/2000/svg" xmlns:xlink="http://www.w3.org/1999/xlink">
 <metadata>
  <rdf:RDF xmlns:cc="http://creativecommons.org/ns#" xmlns:dc="http://purl.org/dc/elements/1.1/" xmlns:rdf="http://www.w3.org/1999/02/22-rdf-syntax-ns#">
   <cc:Work>
    <dc:type rdf:resource="http://purl.org/dc/dcmitype/StillImage"/>
    <dc:date>2021-11-19T11:22:15.230072</dc:date>
    <dc:format>image/svg+xml</dc:format>
    <dc:creator>
     <cc:Agent>
      <dc:title>Matplotlib v3.4.3, https://matplotlib.org/</dc:title>
     </cc:Agent>
    </dc:creator>
   </cc:Work>
  </rdf:RDF>
 </metadata>
 <defs>
  <style type="text/css">*{stroke-linecap:butt;stroke-linejoin:round;}</style>
 </defs>
 <g id="figure_1">
  <g id="patch_1">
   <path d="M 0 324 
L 432 324 
L 432 0 
L 0 0 
z
" style="fill:none;"/>
  </g>
  <g id="axes_1">
   <g id="patch_2">
    <path d="M 59.495 269.88 
L 409.288661 269.88 
L 409.288661 15.12 
L 59.495 15.12 
z
" style="fill:#ffffff;"/>
   </g>
   <g id="PolyCollection_1">
    <defs>
     <path d="M 68.239842 -84.788685 
L 68.239842 -80.771696 
L 85.729525 -83.78004 
L 103.219208 -86.660601 
L 120.708891 -88.617592 
L 138.198574 -92.719134 
L 155.688257 -81.293194 
L 173.17794 -98.912817 
L 190.667623 -102.748077 
L 208.157306 -104.830352 
L 225.646989 -108.557302 
L 243.136672 -109.710995 
L 260.626355 -110.191555 
L 278.116038 -114.366525 
L 295.605721 -120.412809 
L 313.095405 -124.141682 
L 330.585088 -128.784284 
L 348.074771 -131.217681 
L 365.564454 -133.338617 
L 383.054137 -131.892774 
L 400.54382 -138.725071 
L 400.54382 -171.430717 
L 400.54382 -171.430717 
L 383.054137 -174.518537 
L 365.564454 -161.181684 
L 348.074771 -150.665287 
L 330.585088 -147.035335 
L 313.095405 -147.527277 
L 295.605721 -142.312168 
L 278.116038 -142.992278 
L 260.626355 -139.513579 
L 243.136672 -130.970467 
L 225.646989 -125.121608 
L 208.157306 -120.872441 
L 190.667623 -114.079665 
L 173.17794 -111.551599 
L 155.688257 -126.473106 
L 138.198574 -102.479941 
L 120.708891 -99.343345 
L 103.219208 -94.038471 
L 85.729525 -89.74535 
L 68.239842 -84.788685 
z
" id="m1c90da84b1" style="stroke:#0d3b66;stroke-opacity:0.2;"/>
    </defs>
    <g clip-path="url(#p519aab2804)">
     <use style="fill:#0d3b66;fill-opacity:0.2;stroke:#0d3b66;stroke-opacity:0.2;" x="0" xlink:href="#m1c90da84b1" y="324"/>
    </g>
   </g>
   <g id="PolyCollection_2">
    <defs>
     <path d="M 68.239842 -182.134685 
L 68.239842 -84.788646 
L 85.729525 -81.626735 
L 103.219208 -80.405574 
L 120.708891 -76.796714 
L 138.198574 -76.667062 
L 155.688257 -74.809561 
L 173.17794 -72.212278 
L 190.667623 -73.427329 
L 208.157306 -72.610093 
L 225.646989 -71.063636 
L 243.136672 -70.055689 
L 260.626355 -67.191136 
L 278.116038 -68.376601 
L 295.605721 -66.426173 
L 313.095405 -66.824143 
L 330.585088 -66.725948 
L 348.074771 -67.571705 
L 365.564454 -65.7 
L 383.054137 -68.193333 
L 400.54382 -69.176507 
L 400.54382 -118.590682 
L 400.54382 -118.590682 
L 383.054137 -129.306746 
L 365.564454 -136.405411 
L 348.074771 -136.006077 
L 330.585088 -133.236794 
L 313.095405 -131.363924 
L 295.605721 -142.483583 
L 278.116038 -142.208212 
L 260.626355 -142.789801 
L 243.136672 -149.874975 
L 225.646989 -154.64644 
L 208.157306 -155.49408 
L 190.667623 -159.053803 
L 173.17794 -161.638433 
L 155.688257 -165.16424 
L 138.198574 -169.044672 
L 120.708891 -172.431919 
L 103.219208 -176.182329 
L 85.729525 -175.452746 
L 68.239842 -182.134685 
z
" id="m447a5cc21e" style="stroke:#dbad6a;stroke-opacity:0.2;"/>
    </defs>
    <g clip-path="url(#p519aab2804)">
     <use style="fill:#dbad6a;fill-opacity:0.2;stroke:#dbad6a;stroke-opacity:0.2;" x="0" xlink:href="#m447a5cc21e" y="324"/>
    </g>
   </g>
   <g id="PolyCollection_3">
    <defs>
     <path d="M 68.239842 -108.509351 
L 68.239842 -88.842938 
L 85.729525 -97.926708 
L 103.219208 -97.972808 
L 120.708891 -97.977809 
L 138.198574 -98.066938 
L 155.688257 -100.199589 
L 173.17794 -104.448943 
L 190.667623 -108.813945 
L 208.157306 -113.085384 
L 225.646989 -117.517913 
L 243.136672 -122.116187 
L 260.626355 -126.7282 
L 278.116038 -131.126745 
L 295.605721 -135.896502 
L 313.095405 -140.72285 
L 330.585088 -145.400821 
L 348.074771 -149.90764 
L 365.564454 -143.042569 
L 383.054137 -159.991524 
L 400.54382 -151.321506 
L 400.54382 -183.351884 
L 400.54382 -183.351884 
L 383.054137 -162.974341 
L 365.564454 -171.642622 
L 348.074771 -153.030852 
L 330.585088 -148.260368 
L 313.095405 -143.67252 
L 295.605721 -138.728021 
L 278.116038 -133.952255 
L 260.626355 -129.415352 
L 243.136672 -125.075431 
L 225.646989 -120.32047 
L 208.157306 -115.590767 
L 190.667623 -111.457916 
L 173.17794 -106.940916 
L 155.688257 -102.674934 
L 138.198574 -98.793454 
L 120.708891 -98.493642 
L 103.219208 -98.494549 
L 85.729525 -98.485541 
L 68.239842 -108.509351 
z
" id="m0bebad90e9" style="stroke:#0e9595;stroke-opacity:0.2;"/>
    </defs>
    <g clip-path="url(#p519aab2804)">
     <use style="fill:#0e9595;fill-opacity:0.2;stroke:#0e9595;stroke-opacity:0.2;" x="0" xlink:href="#m0bebad90e9" y="324"/>
    </g>
   </g>
   <g id="PolyCollection_4">
    <defs>
     <path d="M 68.239842 -209.620014 
L 68.239842 -111.557124 
L 85.729525 -112.370795 
L 103.219208 -114.675739 
L 120.708891 -114.596317 
L 138.198574 -118.496959 
L 155.688257 -122.631816 
L 173.17794 -128.77994 
L 190.667623 -137.571069 
L 208.157306 -145.428329 
L 225.646989 -152.38278 
L 243.136672 -159.168911 
L 260.626355 -164.385784 
L 278.116038 -173.435347 
L 295.605721 -180.459373 
L 313.095405 -189.419128 
L 330.585088 -196.712117 
L 348.074771 -205.339057 
L 365.564454 -213.049385 
L 383.054137 -224.629985 
L 400.54382 -226.637505 
L 400.54382 -297.3 
L 400.54382 -297.3 
L 383.054137 -293.588408 
L 365.564454 -289.602657 
L 348.074771 -274.401323 
L 330.585088 -264.07257 
L 313.095405 -256.174405 
L 295.605721 -257.141022 
L 278.116038 -250.928407 
L 260.626355 -242.784976 
L 243.136672 -239.975971 
L 225.646989 -236.185726 
L 208.157306 -228.395926 
L 190.667623 -223.350803 
L 173.17794 -218.266184 
L 155.688257 -219.323945 
L 138.198574 -210.615379 
L 120.708891 -210.405842 
L 103.219208 -210.419729 
L 85.729525 -205.987462 
L 68.239842 -209.620014 
z
" id="mb7a836dd55" style="stroke:#bf4e30;stroke-opacity:0.2;"/>
    </defs>
    <g clip-path="url(#p519aab2804)">
     <use style="fill:#bf4e30;fill-opacity:0.2;stroke:#bf4e30;stroke-opacity:0.2;" x="0" xlink:href="#mb7a836dd55" y="324"/>
    </g>
   </g>
   <g id="matplotlib.axis_1">
    <g id="xtick_1">
     <g id="line2d_1">
      <defs>
       <path d="M 0 0 
L 0 3.5 
" id="m8aa8b841ba" style="stroke:#000000;stroke-width:0.8;"/>
      </defs>
      <g>
       <use style="stroke:#000000;stroke-width:0.8;" x="142.811994" xlink:href="#m8aa8b841ba" y="269.88"/>
      </g>
     </g>
     <g id="text_1">
      <!-- 2000 -->
      <g transform="translate(127.241369 286.900937)scale(0.14 -0.14)">
       <defs>
        <path d="M 3222 541 
L 3222 0 
L 194 0 
Q 188 203 259 391 
Q 375 700 629 1000 
Q 884 1300 1366 1694 
Q 2113 2306 2375 2664 
Q 2638 3022 2638 3341 
Q 2638 3675 2398 3904 
Q 2159 4134 1775 4134 
Q 1369 4134 1125 3890 
Q 881 3647 878 3216 
L 300 3275 
Q 359 3922 746 4261 
Q 1134 4600 1788 4600 
Q 2447 4600 2831 4234 
Q 3216 3869 3216 3328 
Q 3216 3053 3103 2787 
Q 2991 2522 2730 2228 
Q 2469 1934 1863 1422 
Q 1356 997 1212 845 
Q 1069 694 975 541 
L 3222 541 
z
" id="ArialMT-32" transform="scale(0.015625)"/>
        <path d="M 266 2259 
Q 266 3072 433 3567 
Q 600 4063 929 4331 
Q 1259 4600 1759 4600 
Q 2128 4600 2406 4451 
Q 2684 4303 2865 4023 
Q 3047 3744 3150 3342 
Q 3253 2941 3253 2259 
Q 3253 1453 3087 958 
Q 2922 463 2592 192 
Q 2263 -78 1759 -78 
Q 1097 -78 719 397 
Q 266 969 266 2259 
z
M 844 2259 
Q 844 1131 1108 757 
Q 1372 384 1759 384 
Q 2147 384 2411 759 
Q 2675 1134 2675 2259 
Q 2675 3391 2411 3762 
Q 2147 4134 1753 4134 
Q 1366 4134 1134 3806 
Q 844 3388 844 2259 
z
" id="ArialMT-30" transform="scale(0.015625)"/>
       </defs>
       <use xlink:href="#ArialMT-32"/>
       <use x="55.615234" xlink:href="#ArialMT-30"/>
       <use x="111.230469" xlink:href="#ArialMT-30"/>
       <use x="166.845703" xlink:href="#ArialMT-30"/>
      </g>
     </g>
    </g>
    <g id="xtick_2">
     <g id="line2d_2">
      <g>
       <use style="stroke:#000000;stroke-width:0.8;" x="228.883269" xlink:href="#m8aa8b841ba" y="269.88"/>
      </g>
     </g>
     <g id="text_2">
      <!-- 4000 -->
      <g transform="translate(213.312644 286.900937)scale(0.14 -0.14)">
       <defs>
        <path d="M 2069 0 
L 2069 1097 
L 81 1097 
L 81 1613 
L 2172 4581 
L 2631 4581 
L 2631 1613 
L 3250 1613 
L 3250 1097 
L 2631 1097 
L 2631 0 
L 2069 0 
z
M 2069 1613 
L 2069 3678 
L 634 1613 
L 2069 1613 
z
" id="ArialMT-34" transform="scale(0.015625)"/>
       </defs>
       <use xlink:href="#ArialMT-34"/>
       <use x="55.615234" xlink:href="#ArialMT-30"/>
       <use x="111.230469" xlink:href="#ArialMT-30"/>
       <use x="166.845703" xlink:href="#ArialMT-30"/>
      </g>
     </g>
    </g>
    <g id="xtick_3">
     <g id="line2d_3">
      <g>
       <use style="stroke:#000000;stroke-width:0.8;" x="314.954544" xlink:href="#m8aa8b841ba" y="269.88"/>
      </g>
     </g>
     <g id="text_3">
      <!-- 6000 -->
      <g transform="translate(299.383919 286.900937)scale(0.14 -0.14)">
       <defs>
        <path d="M 3184 3459 
L 2625 3416 
Q 2550 3747 2413 3897 
Q 2184 4138 1850 4138 
Q 1581 4138 1378 3988 
Q 1113 3794 959 3422 
Q 806 3050 800 2363 
Q 1003 2672 1297 2822 
Q 1591 2972 1913 2972 
Q 2475 2972 2870 2558 
Q 3266 2144 3266 1488 
Q 3266 1056 3080 686 
Q 2894 316 2569 119 
Q 2244 -78 1831 -78 
Q 1128 -78 684 439 
Q 241 956 241 2144 
Q 241 3472 731 4075 
Q 1159 4600 1884 4600 
Q 2425 4600 2770 4297 
Q 3116 3994 3184 3459 
z
M 888 1484 
Q 888 1194 1011 928 
Q 1134 663 1356 523 
Q 1578 384 1822 384 
Q 2178 384 2434 671 
Q 2691 959 2691 1453 
Q 2691 1928 2437 2201 
Q 2184 2475 1800 2475 
Q 1419 2475 1153 2201 
Q 888 1928 888 1484 
z
" id="ArialMT-36" transform="scale(0.015625)"/>
       </defs>
       <use xlink:href="#ArialMT-36"/>
       <use x="55.615234" xlink:href="#ArialMT-30"/>
       <use x="111.230469" xlink:href="#ArialMT-30"/>
       <use x="166.845703" xlink:href="#ArialMT-30"/>
      </g>
     </g>
    </g>
    <g id="xtick_4">
     <g id="line2d_4">
      <g>
       <use style="stroke:#000000;stroke-width:0.8;" x="401.025819" xlink:href="#m8aa8b841ba" y="269.88"/>
      </g>
     </g>
     <g id="text_4">
      <!-- 8000 -->
      <g transform="translate(385.455194 286.900937)scale(0.14 -0.14)">
       <defs>
        <path d="M 1131 2484 
Q 781 2613 612 2850 
Q 444 3088 444 3419 
Q 444 3919 803 4259 
Q 1163 4600 1759 4600 
Q 2359 4600 2725 4251 
Q 3091 3903 3091 3403 
Q 3091 3084 2923 2848 
Q 2756 2613 2416 2484 
Q 2838 2347 3058 2040 
Q 3278 1734 3278 1309 
Q 3278 722 2862 322 
Q 2447 -78 1769 -78 
Q 1091 -78 675 323 
Q 259 725 259 1325 
Q 259 1772 486 2073 
Q 713 2375 1131 2484 
z
M 1019 3438 
Q 1019 3113 1228 2906 
Q 1438 2700 1772 2700 
Q 2097 2700 2305 2904 
Q 2513 3109 2513 3406 
Q 2513 3716 2298 3927 
Q 2084 4138 1766 4138 
Q 1444 4138 1231 3931 
Q 1019 3725 1019 3438 
z
M 838 1322 
Q 838 1081 952 856 
Q 1066 631 1291 507 
Q 1516 384 1775 384 
Q 2178 384 2440 643 
Q 2703 903 2703 1303 
Q 2703 1709 2433 1975 
Q 2163 2241 1756 2241 
Q 1359 2241 1098 1978 
Q 838 1716 838 1322 
z
" id="ArialMT-38" transform="scale(0.015625)"/>
       </defs>
       <use xlink:href="#ArialMT-38"/>
       <use x="55.615234" xlink:href="#ArialMT-30"/>
       <use x="111.230469" xlink:href="#ArialMT-30"/>
       <use x="166.845703" xlink:href="#ArialMT-30"/>
      </g>
     </g>
    </g>
    <g id="text_5">
     <!-- number of atoms -->
     <g transform="translate(181.872143 303.704375)scale(0.14 -0.14)">
      <defs>
       <path d="M 422 0 
L 422 3319 
L 928 3319 
L 928 2847 
Q 1294 3394 1984 3394 
Q 2284 3394 2536 3286 
Q 2788 3178 2913 3003 
Q 3038 2828 3088 2588 
Q 3119 2431 3119 2041 
L 3119 0 
L 2556 0 
L 2556 2019 
Q 2556 2363 2490 2533 
Q 2425 2703 2258 2804 
Q 2091 2906 1866 2906 
Q 1506 2906 1245 2678 
Q 984 2450 984 1813 
L 984 0 
L 422 0 
z
" id="ArialMT-6e" transform="scale(0.015625)"/>
       <path d="M 2597 0 
L 2597 488 
Q 2209 -75 1544 -75 
Q 1250 -75 995 37 
Q 741 150 617 320 
Q 494 491 444 738 
Q 409 903 409 1263 
L 409 3319 
L 972 3319 
L 972 1478 
Q 972 1038 1006 884 
Q 1059 663 1231 536 
Q 1403 409 1656 409 
Q 1909 409 2131 539 
Q 2353 669 2445 892 
Q 2538 1116 2538 1541 
L 2538 3319 
L 3100 3319 
L 3100 0 
L 2597 0 
z
" id="ArialMT-75" transform="scale(0.015625)"/>
       <path d="M 422 0 
L 422 3319 
L 925 3319 
L 925 2853 
Q 1081 3097 1340 3245 
Q 1600 3394 1931 3394 
Q 2300 3394 2536 3241 
Q 2772 3088 2869 2813 
Q 3263 3394 3894 3394 
Q 4388 3394 4653 3120 
Q 4919 2847 4919 2278 
L 4919 0 
L 4359 0 
L 4359 2091 
Q 4359 2428 4304 2576 
Q 4250 2725 4106 2815 
Q 3963 2906 3769 2906 
Q 3419 2906 3187 2673 
Q 2956 2441 2956 1928 
L 2956 0 
L 2394 0 
L 2394 2156 
Q 2394 2531 2256 2718 
Q 2119 2906 1806 2906 
Q 1569 2906 1367 2781 
Q 1166 2656 1075 2415 
Q 984 2175 984 1722 
L 984 0 
L 422 0 
z
" id="ArialMT-6d" transform="scale(0.015625)"/>
       <path d="M 941 0 
L 419 0 
L 419 4581 
L 981 4581 
L 981 2947 
Q 1338 3394 1891 3394 
Q 2197 3394 2470 3270 
Q 2744 3147 2920 2923 
Q 3097 2700 3197 2384 
Q 3297 2069 3297 1709 
Q 3297 856 2875 390 
Q 2453 -75 1863 -75 
Q 1275 -75 941 416 
L 941 0 
z
M 934 1684 
Q 934 1088 1097 822 
Q 1363 388 1816 388 
Q 2184 388 2453 708 
Q 2722 1028 2722 1663 
Q 2722 2313 2464 2622 
Q 2206 2931 1841 2931 
Q 1472 2931 1203 2611 
Q 934 2291 934 1684 
z
" id="ArialMT-62" transform="scale(0.015625)"/>
       <path d="M 2694 1069 
L 3275 997 
Q 3138 488 2766 206 
Q 2394 -75 1816 -75 
Q 1088 -75 661 373 
Q 234 822 234 1631 
Q 234 2469 665 2931 
Q 1097 3394 1784 3394 
Q 2450 3394 2872 2941 
Q 3294 2488 3294 1666 
Q 3294 1616 3291 1516 
L 816 1516 
Q 847 969 1125 678 
Q 1403 388 1819 388 
Q 2128 388 2347 550 
Q 2566 713 2694 1069 
z
M 847 1978 
L 2700 1978 
Q 2663 2397 2488 2606 
Q 2219 2931 1791 2931 
Q 1403 2931 1139 2672 
Q 875 2413 847 1978 
z
" id="ArialMT-65" transform="scale(0.015625)"/>
       <path d="M 416 0 
L 416 3319 
L 922 3319 
L 922 2816 
Q 1116 3169 1280 3281 
Q 1444 3394 1641 3394 
Q 1925 3394 2219 3213 
L 2025 2691 
Q 1819 2813 1613 2813 
Q 1428 2813 1281 2702 
Q 1134 2591 1072 2394 
Q 978 2094 978 1738 
L 978 0 
L 416 0 
z
" id="ArialMT-72" transform="scale(0.015625)"/>
       <path id="ArialMT-20" transform="scale(0.015625)"/>
       <path d="M 213 1659 
Q 213 2581 725 3025 
Q 1153 3394 1769 3394 
Q 2453 3394 2887 2945 
Q 3322 2497 3322 1706 
Q 3322 1066 3130 698 
Q 2938 331 2570 128 
Q 2203 -75 1769 -75 
Q 1072 -75 642 372 
Q 213 819 213 1659 
z
M 791 1659 
Q 791 1022 1069 705 
Q 1347 388 1769 388 
Q 2188 388 2466 706 
Q 2744 1025 2744 1678 
Q 2744 2294 2464 2611 
Q 2184 2928 1769 2928 
Q 1347 2928 1069 2612 
Q 791 2297 791 1659 
z
" id="ArialMT-6f" transform="scale(0.015625)"/>
       <path d="M 556 0 
L 556 2881 
L 59 2881 
L 59 3319 
L 556 3319 
L 556 3672 
Q 556 4006 616 4169 
Q 697 4388 901 4523 
Q 1106 4659 1475 4659 
Q 1713 4659 2000 4603 
L 1916 4113 
Q 1741 4144 1584 4144 
Q 1328 4144 1222 4034 
Q 1116 3925 1116 3625 
L 1116 3319 
L 1763 3319 
L 1763 2881 
L 1116 2881 
L 1116 0 
L 556 0 
z
" id="ArialMT-66" transform="scale(0.015625)"/>
       <path d="M 2588 409 
Q 2275 144 1986 34 
Q 1697 -75 1366 -75 
Q 819 -75 525 192 
Q 231 459 231 875 
Q 231 1119 342 1320 
Q 453 1522 633 1644 
Q 813 1766 1038 1828 
Q 1203 1872 1538 1913 
Q 2219 1994 2541 2106 
Q 2544 2222 2544 2253 
Q 2544 2597 2384 2738 
Q 2169 2928 1744 2928 
Q 1347 2928 1158 2789 
Q 969 2650 878 2297 
L 328 2372 
Q 403 2725 575 2942 
Q 747 3159 1072 3276 
Q 1397 3394 1825 3394 
Q 2250 3394 2515 3294 
Q 2781 3194 2906 3042 
Q 3031 2891 3081 2659 
Q 3109 2516 3109 2141 
L 3109 1391 
Q 3109 606 3145 398 
Q 3181 191 3288 0 
L 2700 0 
Q 2613 175 2588 409 
z
M 2541 1666 
Q 2234 1541 1622 1453 
Q 1275 1403 1131 1340 
Q 988 1278 909 1158 
Q 831 1038 831 891 
Q 831 666 1001 516 
Q 1172 366 1500 366 
Q 1825 366 2078 508 
Q 2331 650 2450 897 
Q 2541 1088 2541 1459 
L 2541 1666 
z
" id="ArialMT-61" transform="scale(0.015625)"/>
       <path d="M 1650 503 
L 1731 6 
Q 1494 -44 1306 -44 
Q 1000 -44 831 53 
Q 663 150 594 308 
Q 525 466 525 972 
L 525 2881 
L 113 2881 
L 113 3319 
L 525 3319 
L 525 4141 
L 1084 4478 
L 1084 3319 
L 1650 3319 
L 1650 2881 
L 1084 2881 
L 1084 941 
Q 1084 700 1114 631 
Q 1144 563 1211 522 
Q 1278 481 1403 481 
Q 1497 481 1650 503 
z
" id="ArialMT-74" transform="scale(0.015625)"/>
       <path d="M 197 991 
L 753 1078 
Q 800 744 1014 566 
Q 1228 388 1613 388 
Q 2000 388 2187 545 
Q 2375 703 2375 916 
Q 2375 1106 2209 1216 
Q 2094 1291 1634 1406 
Q 1016 1563 777 1677 
Q 538 1791 414 1992 
Q 291 2194 291 2438 
Q 291 2659 392 2848 
Q 494 3038 669 3163 
Q 800 3259 1026 3326 
Q 1253 3394 1513 3394 
Q 1903 3394 2198 3281 
Q 2494 3169 2634 2976 
Q 2775 2784 2828 2463 
L 2278 2388 
Q 2241 2644 2061 2787 
Q 1881 2931 1553 2931 
Q 1166 2931 1000 2803 
Q 834 2675 834 2503 
Q 834 2394 903 2306 
Q 972 2216 1119 2156 
Q 1203 2125 1616 2013 
Q 2213 1853 2448 1751 
Q 2684 1650 2818 1456 
Q 2953 1263 2953 975 
Q 2953 694 2789 445 
Q 2625 197 2315 61 
Q 2006 -75 1616 -75 
Q 969 -75 630 194 
Q 291 463 197 991 
z
" id="ArialMT-73" transform="scale(0.015625)"/>
      </defs>
      <use xlink:href="#ArialMT-6e"/>
      <use x="55.615234" xlink:href="#ArialMT-75"/>
      <use x="111.230469" xlink:href="#ArialMT-6d"/>
      <use x="194.53125" xlink:href="#ArialMT-62"/>
      <use x="250.146484" xlink:href="#ArialMT-65"/>
      <use x="305.761719" xlink:href="#ArialMT-72"/>
      <use x="339.0625" xlink:href="#ArialMT-20"/>
      <use x="366.845703" xlink:href="#ArialMT-6f"/>
      <use x="422.460938" xlink:href="#ArialMT-66"/>
      <use x="450.244141" xlink:href="#ArialMT-20"/>
      <use x="478.027344" xlink:href="#ArialMT-61"/>
      <use x="533.642578" xlink:href="#ArialMT-74"/>
      <use x="561.425781" xlink:href="#ArialMT-6f"/>
      <use x="617.041016" xlink:href="#ArialMT-6d"/>
      <use x="700.341797" xlink:href="#ArialMT-73"/>
     </g>
    </g>
   </g>
   <g id="matplotlib.axis_2">
    <g id="ytick_1">
     <g id="line2d_5">
      <defs>
       <path d="M 0 0 
L -3.5 0 
" id="ma130f403a6" style="stroke:#000000;stroke-width:0.8;"/>
      </defs>
      <g>
       <use style="stroke:#000000;stroke-width:0.8;" x="59.495" xlink:href="#ma130f403a6" y="246.835284"/>
      </g>
     </g>
     <g id="text_6">
      <!-- 0.00 -->
      <g transform="translate(25.249688 251.845753)scale(0.14 -0.14)">
       <defs>
        <path d="M 581 0 
L 581 641 
L 1222 641 
L 1222 0 
L 581 0 
z
" id="ArialMT-2e" transform="scale(0.015625)"/>
       </defs>
       <use xlink:href="#ArialMT-30"/>
       <use x="55.615234" xlink:href="#ArialMT-2e"/>
       <use x="83.398438" xlink:href="#ArialMT-30"/>
       <use x="139.013672" xlink:href="#ArialMT-30"/>
      </g>
     </g>
    </g>
    <g id="ytick_2">
     <g id="line2d_6">
      <g>
       <use style="stroke:#000000;stroke-width:0.8;" x="59.495" xlink:href="#ma130f403a6" y="217.664359"/>
      </g>
     </g>
     <g id="text_7">
      <!-- 0.05 -->
      <g transform="translate(25.249688 222.674828)scale(0.14 -0.14)">
       <defs>
        <path d="M 266 1200 
L 856 1250 
Q 922 819 1161 601 
Q 1400 384 1738 384 
Q 2144 384 2425 690 
Q 2706 997 2706 1503 
Q 2706 1984 2436 2262 
Q 2166 2541 1728 2541 
Q 1456 2541 1237 2417 
Q 1019 2294 894 2097 
L 366 2166 
L 809 4519 
L 3088 4519 
L 3088 3981 
L 1259 3981 
L 1013 2750 
Q 1425 3038 1878 3038 
Q 2478 3038 2890 2622 
Q 3303 2206 3303 1553 
Q 3303 931 2941 478 
Q 2500 -78 1738 -78 
Q 1113 -78 717 272 
Q 322 622 266 1200 
z
" id="ArialMT-35" transform="scale(0.015625)"/>
       </defs>
       <use xlink:href="#ArialMT-30"/>
       <use x="55.615234" xlink:href="#ArialMT-2e"/>
       <use x="83.398438" xlink:href="#ArialMT-30"/>
       <use x="139.013672" xlink:href="#ArialMT-35"/>
      </g>
     </g>
    </g>
    <g id="ytick_3">
     <g id="line2d_7">
      <g>
       <use style="stroke:#000000;stroke-width:0.8;" x="59.495" xlink:href="#ma130f403a6" y="188.493434"/>
      </g>
     </g>
     <g id="text_8">
      <!-- 0.10 -->
      <g transform="translate(25.249688 193.503902)scale(0.14 -0.14)">
       <defs>
        <path d="M 2384 0 
L 1822 0 
L 1822 3584 
Q 1619 3391 1289 3197 
Q 959 3003 697 2906 
L 697 3450 
Q 1169 3672 1522 3987 
Q 1875 4303 2022 4600 
L 2384 4600 
L 2384 0 
z
" id="ArialMT-31" transform="scale(0.015625)"/>
       </defs>
       <use xlink:href="#ArialMT-30"/>
       <use x="55.615234" xlink:href="#ArialMT-2e"/>
       <use x="83.398438" xlink:href="#ArialMT-31"/>
       <use x="139.013672" xlink:href="#ArialMT-30"/>
      </g>
     </g>
    </g>
    <g id="ytick_4">
     <g id="line2d_8">
      <g>
       <use style="stroke:#000000;stroke-width:0.8;" x="59.495" xlink:href="#ma130f403a6" y="159.322508"/>
      </g>
     </g>
     <g id="text_9">
      <!-- 0.15 -->
      <g transform="translate(25.249688 164.332977)scale(0.14 -0.14)">
       <use xlink:href="#ArialMT-30"/>
       <use x="55.615234" xlink:href="#ArialMT-2e"/>
       <use x="83.398438" xlink:href="#ArialMT-31"/>
       <use x="139.013672" xlink:href="#ArialMT-35"/>
      </g>
     </g>
    </g>
    <g id="ytick_5">
     <g id="line2d_9">
      <g>
       <use style="stroke:#000000;stroke-width:0.8;" x="59.495" xlink:href="#ma130f403a6" y="130.151583"/>
      </g>
     </g>
     <g id="text_10">
      <!-- 0.20 -->
      <g transform="translate(25.249688 135.162052)scale(0.14 -0.14)">
       <use xlink:href="#ArialMT-30"/>
       <use x="55.615234" xlink:href="#ArialMT-2e"/>
       <use x="83.398438" xlink:href="#ArialMT-32"/>
       <use x="139.013672" xlink:href="#ArialMT-30"/>
      </g>
     </g>
    </g>
    <g id="ytick_6">
     <g id="line2d_10">
      <g>
       <use style="stroke:#000000;stroke-width:0.8;" x="59.495" xlink:href="#ma130f403a6" y="100.980657"/>
      </g>
     </g>
     <g id="text_11">
      <!-- 0.25 -->
      <g transform="translate(25.249688 105.991126)scale(0.14 -0.14)">
       <use xlink:href="#ArialMT-30"/>
       <use x="55.615234" xlink:href="#ArialMT-2e"/>
       <use x="83.398438" xlink:href="#ArialMT-32"/>
       <use x="139.013672" xlink:href="#ArialMT-35"/>
      </g>
     </g>
    </g>
    <g id="ytick_7">
     <g id="line2d_11">
      <g>
       <use style="stroke:#000000;stroke-width:0.8;" x="59.495" xlink:href="#ma130f403a6" y="71.809732"/>
      </g>
     </g>
     <g id="text_12">
      <!-- 0.30 -->
      <g transform="translate(25.249688 76.820201)scale(0.14 -0.14)">
       <defs>
        <path d="M 269 1209 
L 831 1284 
Q 928 806 1161 595 
Q 1394 384 1728 384 
Q 2125 384 2398 659 
Q 2672 934 2672 1341 
Q 2672 1728 2419 1979 
Q 2166 2231 1775 2231 
Q 1616 2231 1378 2169 
L 1441 2663 
Q 1497 2656 1531 2656 
Q 1891 2656 2178 2843 
Q 2466 3031 2466 3422 
Q 2466 3731 2256 3934 
Q 2047 4138 1716 4138 
Q 1388 4138 1169 3931 
Q 950 3725 888 3313 
L 325 3413 
Q 428 3978 793 4289 
Q 1159 4600 1703 4600 
Q 2078 4600 2393 4439 
Q 2709 4278 2876 4000 
Q 3044 3722 3044 3409 
Q 3044 3113 2884 2869 
Q 2725 2625 2413 2481 
Q 2819 2388 3044 2092 
Q 3269 1797 3269 1353 
Q 3269 753 2831 336 
Q 2394 -81 1725 -81 
Q 1122 -81 723 278 
Q 325 638 269 1209 
z
" id="ArialMT-33" transform="scale(0.015625)"/>
       </defs>
       <use xlink:href="#ArialMT-30"/>
       <use x="55.615234" xlink:href="#ArialMT-2e"/>
       <use x="83.398438" xlink:href="#ArialMT-33"/>
       <use x="139.013672" xlink:href="#ArialMT-30"/>
      </g>
     </g>
    </g>
    <g id="ytick_8">
     <g id="line2d_12">
      <g>
       <use style="stroke:#000000;stroke-width:0.8;" x="59.495" xlink:href="#ma130f403a6" y="42.638807"/>
      </g>
     </g>
     <g id="text_13">
      <!-- 0.35 -->
      <g transform="translate(25.249688 47.649275)scale(0.14 -0.14)">
       <use xlink:href="#ArialMT-30"/>
       <use x="55.615234" xlink:href="#ArialMT-2e"/>
       <use x="83.398438" xlink:href="#ArialMT-33"/>
       <use x="139.013672" xlink:href="#ArialMT-35"/>
      </g>
     </g>
    </g>
    <g id="text_14">
     <!-- time [s] -->
     <g transform="translate(18.467187 165.0575)rotate(-90)scale(0.14 -0.14)">
      <defs>
       <path d="M 425 3934 
L 425 4581 
L 988 4581 
L 988 3934 
L 425 3934 
z
M 425 0 
L 425 3319 
L 988 3319 
L 988 0 
L 425 0 
z
" id="ArialMT-69" transform="scale(0.015625)"/>
       <path d="M 434 -1272 
L 434 4581 
L 1675 4581 
L 1675 4116 
L 997 4116 
L 997 -806 
L 1675 -806 
L 1675 -1272 
L 434 -1272 
z
" id="ArialMT-5b" transform="scale(0.015625)"/>
       <path d="M 1363 -1272 
L 122 -1272 
L 122 -806 
L 800 -806 
L 800 4116 
L 122 4116 
L 122 4581 
L 1363 4581 
L 1363 -1272 
z
" id="ArialMT-5d" transform="scale(0.015625)"/>
      </defs>
      <use xlink:href="#ArialMT-74"/>
      <use x="27.783203" xlink:href="#ArialMT-69"/>
      <use x="50" xlink:href="#ArialMT-6d"/>
      <use x="133.300781" xlink:href="#ArialMT-65"/>
      <use x="188.916016" xlink:href="#ArialMT-20"/>
      <use x="216.699219" xlink:href="#ArialMT-5b"/>
      <use x="244.482422" xlink:href="#ArialMT-73"/>
      <use x="294.482422" xlink:href="#ArialMT-5d"/>
     </g>
    </g>
   </g>
   <g id="line2d_13">
    <path clip-path="url(#p519aab2804)" d="M 68.239842 241.21981 
L 85.729525 237.237305 
L 103.219208 233.650464 
L 120.708891 230.019531 
L 138.198574 226.400463 
L 155.688257 220.11685 
L 173.17794 218.767792 
L 190.667623 215.586129 
L 208.157306 211.148604 
L 225.646989 207.160545 
L 243.136672 203.659269 
L 260.626355 199.147433 
L 278.116038 195.320599 
L 295.605721 192.637511 
L 313.095405 188.16552 
L 330.585088 186.090191 
L 348.074771 183.058516 
L 365.564454 176.739849 
L 383.054137 170.794345 
L 400.54382 168.922106 
" style="fill:none;stroke:#0d3b66;stroke-linecap:square;stroke-width:1.5;"/>
    <defs>
     <path d="M 0 1.5 
C 0.397805 1.5 0.77937 1.341951 1.06066 1.06066 
C 1.341951 0.77937 1.5 0.397805 1.5 0 
C 1.5 -0.397805 1.341951 -0.77937 1.06066 -1.06066 
C 0.77937 -1.341951 0.397805 -1.5 0 -1.5 
C -0.397805 -1.5 -0.77937 -1.341951 -1.06066 -1.06066 
C -1.341951 -0.77937 -1.5 -0.397805 -1.5 0 
C -1.5 0.397805 -1.341951 0.77937 -1.06066 1.06066 
C -0.77937 1.341951 -0.397805 1.5 0 1.5 
z
" id="m13ce34d7a2" style="stroke:#0d3b66;"/>
    </defs>
    <g clip-path="url(#p519aab2804)">
     <use style="fill:#0d3b66;stroke:#0d3b66;" x="68.239842" xlink:href="#m13ce34d7a2" y="241.21981"/>
     <use style="fill:#0d3b66;stroke:#0d3b66;" x="85.729525" xlink:href="#m13ce34d7a2" y="237.237305"/>
     <use style="fill:#0d3b66;stroke:#0d3b66;" x="103.219208" xlink:href="#m13ce34d7a2" y="233.650464"/>
     <use style="fill:#0d3b66;stroke:#0d3b66;" x="120.708891" xlink:href="#m13ce34d7a2" y="230.019531"/>
     <use style="fill:#0d3b66;stroke:#0d3b66;" x="138.198574" xlink:href="#m13ce34d7a2" y="226.400463"/>
     <use style="fill:#0d3b66;stroke:#0d3b66;" x="155.688257" xlink:href="#m13ce34d7a2" y="220.11685"/>
     <use style="fill:#0d3b66;stroke:#0d3b66;" x="173.17794" xlink:href="#m13ce34d7a2" y="218.767792"/>
     <use style="fill:#0d3b66;stroke:#0d3b66;" x="190.667623" xlink:href="#m13ce34d7a2" y="215.586129"/>
     <use style="fill:#0d3b66;stroke:#0d3b66;" x="208.157306" xlink:href="#m13ce34d7a2" y="211.148604"/>
     <use style="fill:#0d3b66;stroke:#0d3b66;" x="225.646989" xlink:href="#m13ce34d7a2" y="207.160545"/>
     <use style="fill:#0d3b66;stroke:#0d3b66;" x="243.136672" xlink:href="#m13ce34d7a2" y="203.659269"/>
     <use style="fill:#0d3b66;stroke:#0d3b66;" x="260.626355" xlink:href="#m13ce34d7a2" y="199.147433"/>
     <use style="fill:#0d3b66;stroke:#0d3b66;" x="278.116038" xlink:href="#m13ce34d7a2" y="195.320599"/>
     <use style="fill:#0d3b66;stroke:#0d3b66;" x="295.605721" xlink:href="#m13ce34d7a2" y="192.637511"/>
     <use style="fill:#0d3b66;stroke:#0d3b66;" x="313.095405" xlink:href="#m13ce34d7a2" y="188.16552"/>
     <use style="fill:#0d3b66;stroke:#0d3b66;" x="330.585088" xlink:href="#m13ce34d7a2" y="186.090191"/>
     <use style="fill:#0d3b66;stroke:#0d3b66;" x="348.074771" xlink:href="#m13ce34d7a2" y="183.058516"/>
     <use style="fill:#0d3b66;stroke:#0d3b66;" x="365.564454" xlink:href="#m13ce34d7a2" y="176.739849"/>
     <use style="fill:#0d3b66;stroke:#0d3b66;" x="383.054137" xlink:href="#m13ce34d7a2" y="170.794345"/>
     <use style="fill:#0d3b66;stroke:#0d3b66;" x="400.54382" xlink:href="#m13ce34d7a2" y="168.922106"/>
    </g>
   </g>
   <g id="line2d_14">
    <path clip-path="url(#p519aab2804)" d="M 68.239842 190.538334 
L 85.729525 195.46026 
L 103.219208 195.706049 
L 120.708891 199.385683 
L 138.198574 201.144133 
L 155.688257 204.0131 
L 173.17794 207.074644 
L 190.667623 207.759434 
L 208.157306 209.947913 
L 225.646989 211.144962 
L 243.136672 214.034668 
L 260.626355 219.009532 
L 278.116038 218.707594 
L 295.605721 219.545122 
L 313.095405 224.905967 
L 330.585088 224.018629 
L 348.074771 222.211109 
L 365.564454 222.947294 
L 383.054137 225.24996 
L 400.54382 230.116405 
" style="fill:none;stroke:#dbad6a;stroke-linecap:square;stroke-width:1.5;"/>
    <defs>
     <path d="M 0 1.5 
C 0.397805 1.5 0.77937 1.341951 1.06066 1.06066 
C 1.341951 0.77937 1.5 0.397805 1.5 0 
C 1.5 -0.397805 1.341951 -0.77937 1.06066 -1.06066 
C 0.77937 -1.341951 0.397805 -1.5 0 -1.5 
C -0.397805 -1.5 -0.77937 -1.341951 -1.06066 -1.06066 
C -1.341951 -0.77937 -1.5 -0.397805 -1.5 0 
C -1.5 0.397805 -1.341951 0.77937 -1.06066 1.06066 
C -0.77937 1.341951 -0.397805 1.5 0 1.5 
z
" id="m45a8a32c3f" style="stroke:#dbad6a;"/>
    </defs>
    <g clip-path="url(#p519aab2804)">
     <use style="fill:#dbad6a;stroke:#dbad6a;" x="68.239842" xlink:href="#m45a8a32c3f" y="190.538334"/>
     <use style="fill:#dbad6a;stroke:#dbad6a;" x="85.729525" xlink:href="#m45a8a32c3f" y="195.46026"/>
     <use style="fill:#dbad6a;stroke:#dbad6a;" x="103.219208" xlink:href="#m45a8a32c3f" y="195.706049"/>
     <use style="fill:#dbad6a;stroke:#dbad6a;" x="120.708891" xlink:href="#m45a8a32c3f" y="199.385683"/>
     <use style="fill:#dbad6a;stroke:#dbad6a;" x="138.198574" xlink:href="#m45a8a32c3f" y="201.144133"/>
     <use style="fill:#dbad6a;stroke:#dbad6a;" x="155.688257" xlink:href="#m45a8a32c3f" y="204.0131"/>
     <use style="fill:#dbad6a;stroke:#dbad6a;" x="173.17794" xlink:href="#m45a8a32c3f" y="207.074644"/>
     <use style="fill:#dbad6a;stroke:#dbad6a;" x="190.667623" xlink:href="#m45a8a32c3f" y="207.759434"/>
     <use style="fill:#dbad6a;stroke:#dbad6a;" x="208.157306" xlink:href="#m45a8a32c3f" y="209.947913"/>
     <use style="fill:#dbad6a;stroke:#dbad6a;" x="225.646989" xlink:href="#m45a8a32c3f" y="211.144962"/>
     <use style="fill:#dbad6a;stroke:#dbad6a;" x="243.136672" xlink:href="#m45a8a32c3f" y="214.034668"/>
     <use style="fill:#dbad6a;stroke:#dbad6a;" x="260.626355" xlink:href="#m45a8a32c3f" y="219.009532"/>
     <use style="fill:#dbad6a;stroke:#dbad6a;" x="278.116038" xlink:href="#m45a8a32c3f" y="218.707594"/>
     <use style="fill:#dbad6a;stroke:#dbad6a;" x="295.605721" xlink:href="#m45a8a32c3f" y="219.545122"/>
     <use style="fill:#dbad6a;stroke:#dbad6a;" x="313.095405" xlink:href="#m45a8a32c3f" y="224.905967"/>
     <use style="fill:#dbad6a;stroke:#dbad6a;" x="330.585088" xlink:href="#m45a8a32c3f" y="224.018629"/>
     <use style="fill:#dbad6a;stroke:#dbad6a;" x="348.074771" xlink:href="#m45a8a32c3f" y="222.211109"/>
     <use style="fill:#dbad6a;stroke:#dbad6a;" x="365.564454" xlink:href="#m45a8a32c3f" y="222.947294"/>
     <use style="fill:#dbad6a;stroke:#dbad6a;" x="383.054137" xlink:href="#m45a8a32c3f" y="225.24996"/>
     <use style="fill:#dbad6a;stroke:#dbad6a;" x="400.54382" xlink:href="#m45a8a32c3f" y="230.116405"/>
    </g>
   </g>
   <g id="line2d_15">
    <path clip-path="url(#p519aab2804)" d="M 68.239842 225.323856 
L 85.729525 225.793876 
L 103.219208 225.766322 
L 120.708891 225.764275 
L 138.198574 225.569804 
L 155.688257 222.562738 
L 173.17794 218.30507 
L 190.667623 213.86407 
L 208.157306 209.661924 
L 225.646989 205.080809 
L 243.136672 200.404191 
L 260.626355 195.928224 
L 278.116038 191.4605 
L 295.605721 186.687738 
L 313.095405 181.802315 
L 330.585088 177.169405 
L 348.074771 172.530754 
L 365.564454 166.657404 
L 383.054137 162.517068 
L 400.54382 156.663305 
" style="fill:none;stroke:#0e9595;stroke-linecap:square;stroke-width:1.5;"/>
    <defs>
     <path d="M 0 1.5 
C 0.397805 1.5 0.77937 1.341951 1.06066 1.06066 
C 1.341951 0.77937 1.5 0.397805 1.5 0 
C 1.5 -0.397805 1.341951 -0.77937 1.06066 -1.06066 
C 0.77937 -1.341951 0.397805 -1.5 0 -1.5 
C -0.397805 -1.5 -0.77937 -1.341951 -1.06066 -1.06066 
C -1.341951 -0.77937 -1.5 -0.397805 -1.5 0 
C -1.5 0.397805 -1.341951 0.77937 -1.06066 1.06066 
C -0.77937 1.341951 -0.397805 1.5 0 1.5 
z
" id="mda9b13fedb" style="stroke:#0e9595;"/>
    </defs>
    <g clip-path="url(#p519aab2804)">
     <use style="fill:#0e9595;stroke:#0e9595;" x="68.239842" xlink:href="#mda9b13fedb" y="225.323856"/>
     <use style="fill:#0e9595;stroke:#0e9595;" x="85.729525" xlink:href="#mda9b13fedb" y="225.793876"/>
     <use style="fill:#0e9595;stroke:#0e9595;" x="103.219208" xlink:href="#mda9b13fedb" y="225.766322"/>
     <use style="fill:#0e9595;stroke:#0e9595;" x="120.708891" xlink:href="#mda9b13fedb" y="225.764275"/>
     <use style="fill:#0e9595;stroke:#0e9595;" x="138.198574" xlink:href="#mda9b13fedb" y="225.569804"/>
     <use style="fill:#0e9595;stroke:#0e9595;" x="155.688257" xlink:href="#mda9b13fedb" y="222.562738"/>
     <use style="fill:#0e9595;stroke:#0e9595;" x="173.17794" xlink:href="#mda9b13fedb" y="218.30507"/>
     <use style="fill:#0e9595;stroke:#0e9595;" x="190.667623" xlink:href="#mda9b13fedb" y="213.86407"/>
     <use style="fill:#0e9595;stroke:#0e9595;" x="208.157306" xlink:href="#mda9b13fedb" y="209.661924"/>
     <use style="fill:#0e9595;stroke:#0e9595;" x="225.646989" xlink:href="#mda9b13fedb" y="205.080809"/>
     <use style="fill:#0e9595;stroke:#0e9595;" x="243.136672" xlink:href="#mda9b13fedb" y="200.404191"/>
     <use style="fill:#0e9595;stroke:#0e9595;" x="260.626355" xlink:href="#mda9b13fedb" y="195.928224"/>
     <use style="fill:#0e9595;stroke:#0e9595;" x="278.116038" xlink:href="#mda9b13fedb" y="191.4605"/>
     <use style="fill:#0e9595;stroke:#0e9595;" x="295.605721" xlink:href="#mda9b13fedb" y="186.687738"/>
     <use style="fill:#0e9595;stroke:#0e9595;" x="313.095405" xlink:href="#mda9b13fedb" y="181.802315"/>
     <use style="fill:#0e9595;stroke:#0e9595;" x="330.585088" xlink:href="#mda9b13fedb" y="177.169405"/>
     <use style="fill:#0e9595;stroke:#0e9595;" x="348.074771" xlink:href="#mda9b13fedb" y="172.530754"/>
     <use style="fill:#0e9595;stroke:#0e9595;" x="365.564454" xlink:href="#mda9b13fedb" y="166.657404"/>
     <use style="fill:#0e9595;stroke:#0e9595;" x="383.054137" xlink:href="#mda9b13fedb" y="162.517068"/>
     <use style="fill:#0e9595;stroke:#0e9595;" x="400.54382" xlink:href="#mda9b13fedb" y="156.663305"/>
    </g>
   </g>
   <g id="line2d_16">
    <path clip-path="url(#p519aab2804)" d="M 68.239842 163.411431 
L 85.729525 164.820872 
L 103.219208 161.452266 
L 120.708891 161.49892 
L 138.198574 159.443831 
L 155.688257 153.022119 
L 173.17794 150.476938 
L 190.667623 143.539064 
L 208.157306 137.087873 
L 225.646989 129.715747 
L 243.136672 124.427559 
L 260.626355 120.41462 
L 278.116038 111.818123 
L 295.605721 105.199803 
L 313.095405 101.203233 
L 330.585088 93.607656 
L 348.074771 84.12981 
L 365.564454 72.673979 
L 383.054137 64.890804 
L 400.54382 62.031248 
" style="fill:none;stroke:#bf4e30;stroke-linecap:square;stroke-width:1.5;"/>
    <defs>
     <path d="M 0 1.5 
C 0.397805 1.5 0.77937 1.341951 1.06066 1.06066 
C 1.341951 0.77937 1.5 0.397805 1.5 0 
C 1.5 -0.397805 1.341951 -0.77937 1.06066 -1.06066 
C 0.77937 -1.341951 0.397805 -1.5 0 -1.5 
C -0.397805 -1.5 -0.77937 -1.341951 -1.06066 -1.06066 
C -1.341951 -0.77937 -1.5 -0.397805 -1.5 0 
C -1.5 0.397805 -1.341951 0.77937 -1.06066 1.06066 
C -0.77937 1.341951 -0.397805 1.5 0 1.5 
z
" id="m14c4f8b5fc" style="stroke:#bf4e30;"/>
    </defs>
    <g clip-path="url(#p519aab2804)">
     <use style="fill:#bf4e30;stroke:#bf4e30;" x="68.239842" xlink:href="#m14c4f8b5fc" y="163.411431"/>
     <use style="fill:#bf4e30;stroke:#bf4e30;" x="85.729525" xlink:href="#m14c4f8b5fc" y="164.820872"/>
     <use style="fill:#bf4e30;stroke:#bf4e30;" x="103.219208" xlink:href="#m14c4f8b5fc" y="161.452266"/>
     <use style="fill:#bf4e30;stroke:#bf4e30;" x="120.708891" xlink:href="#m14c4f8b5fc" y="161.49892"/>
     <use style="fill:#bf4e30;stroke:#bf4e30;" x="138.198574" xlink:href="#m14c4f8b5fc" y="159.443831"/>
     <use style="fill:#bf4e30;stroke:#bf4e30;" x="155.688257" xlink:href="#m14c4f8b5fc" y="153.022119"/>
     <use style="fill:#bf4e30;stroke:#bf4e30;" x="173.17794" xlink:href="#m14c4f8b5fc" y="150.476938"/>
     <use style="fill:#bf4e30;stroke:#bf4e30;" x="190.667623" xlink:href="#m14c4f8b5fc" y="143.539064"/>
     <use style="fill:#bf4e30;stroke:#bf4e30;" x="208.157306" xlink:href="#m14c4f8b5fc" y="137.087873"/>
     <use style="fill:#bf4e30;stroke:#bf4e30;" x="225.646989" xlink:href="#m14c4f8b5fc" y="129.715747"/>
     <use style="fill:#bf4e30;stroke:#bf4e30;" x="243.136672" xlink:href="#m14c4f8b5fc" y="124.427559"/>
     <use style="fill:#bf4e30;stroke:#bf4e30;" x="260.626355" xlink:href="#m14c4f8b5fc" y="120.41462"/>
     <use style="fill:#bf4e30;stroke:#bf4e30;" x="278.116038" xlink:href="#m14c4f8b5fc" y="111.818123"/>
     <use style="fill:#bf4e30;stroke:#bf4e30;" x="295.605721" xlink:href="#m14c4f8b5fc" y="105.199803"/>
     <use style="fill:#bf4e30;stroke:#bf4e30;" x="313.095405" xlink:href="#m14c4f8b5fc" y="101.203233"/>
     <use style="fill:#bf4e30;stroke:#bf4e30;" x="330.585088" xlink:href="#m14c4f8b5fc" y="93.607656"/>
     <use style="fill:#bf4e30;stroke:#bf4e30;" x="348.074771" xlink:href="#m14c4f8b5fc" y="84.12981"/>
     <use style="fill:#bf4e30;stroke:#bf4e30;" x="365.564454" xlink:href="#m14c4f8b5fc" y="72.673979"/>
     <use style="fill:#bf4e30;stroke:#bf4e30;" x="383.054137" xlink:href="#m14c4f8b5fc" y="64.890804"/>
     <use style="fill:#bf4e30;stroke:#bf4e30;" x="400.54382" xlink:href="#m14c4f8b5fc" y="62.031248"/>
    </g>
   </g>
   <g id="patch_3">
    <path d="M 59.495 269.88 
L 59.495 15.12 
" style="fill:none;stroke:#000000;stroke-linecap:square;stroke-linejoin:miter;stroke-width:0.8;"/>
   </g>
   <g id="patch_4">
    <path d="M 409.288661 269.88 
L 409.288661 15.12 
" style="fill:none;stroke:#000000;stroke-linecap:square;stroke-linejoin:miter;stroke-width:0.8;"/>
   </g>
   <g id="patch_5">
    <path d="M 59.495 269.88 
L 409.288661 269.88 
" style="fill:none;stroke:#000000;stroke-linecap:square;stroke-linejoin:miter;stroke-width:0.8;"/>
   </g>
   <g id="patch_6">
    <path d="M 59.495 15.12 
L 409.288661 15.12 
" style="fill:none;stroke:#000000;stroke-linecap:square;stroke-linejoin:miter;stroke-width:0.8;"/>
   </g>
   <g id="legend_1">
    <g id="patch_7">
     <path d="M 69.295 105.53375 
L 163.1125 105.53375 
Q 165.9125 105.53375 165.9125 102.73375 
L 165.9125 24.92 
Q 165.9125 22.12 163.1125 22.12 
L 69.295 22.12 
Q 66.495 22.12 66.495 24.92 
L 66.495 102.73375 
Q 66.495 105.53375 69.295 105.53375 
z
" style="fill:#ffffff;opacity:0.8;stroke:#cccccc;stroke-linejoin:miter;"/>
    </g>
    <g id="line2d_17">
     <path d="M 72.095 32.840937 
L 100.095 32.840937 
" style="fill:none;stroke:#0d3b66;stroke-linecap:square;stroke-width:1.5;"/>
    </g>
    <g id="line2d_18">
     <g>
      <use style="fill:#0d3b66;stroke:#0d3b66;" x="86.095" xlink:href="#m13ce34d7a2" y="32.840937"/>
     </g>
    </g>
    <g id="text_15">
     <!-- load -->
     <g transform="translate(111.295 37.740937)scale(0.14 -0.14)">
      <defs>
       <path d="M 409 0 
L 409 4581 
L 972 4581 
L 972 0 
L 409 0 
z
" id="ArialMT-6c" transform="scale(0.015625)"/>
       <path d="M 2575 0 
L 2575 419 
Q 2259 -75 1647 -75 
Q 1250 -75 917 144 
Q 584 363 401 755 
Q 219 1147 219 1656 
Q 219 2153 384 2558 
Q 550 2963 881 3178 
Q 1213 3394 1622 3394 
Q 1922 3394 2156 3267 
Q 2391 3141 2538 2938 
L 2538 4581 
L 3097 4581 
L 3097 0 
L 2575 0 
z
M 797 1656 
Q 797 1019 1065 703 
Q 1334 388 1700 388 
Q 2069 388 2326 689 
Q 2584 991 2584 1609 
Q 2584 2291 2321 2609 
Q 2059 2928 1675 2928 
Q 1300 2928 1048 2622 
Q 797 2316 797 1656 
z
" id="ArialMT-64" transform="scale(0.015625)"/>
      </defs>
      <use xlink:href="#ArialMT-6c"/>
      <use x="22.216797" xlink:href="#ArialMT-6f"/>
      <use x="77.832031" xlink:href="#ArialMT-61"/>
      <use x="133.447266" xlink:href="#ArialMT-64"/>
     </g>
    </g>
    <g id="line2d_19">
     <path d="M 72.095 52.644375 
L 100.095 52.644375 
" style="fill:none;stroke:#dbad6a;stroke-linecap:square;stroke-width:1.5;"/>
    </g>
    <g id="line2d_20">
     <g>
      <use style="fill:#dbad6a;stroke:#dbad6a;" x="86.095" xlink:href="#m45a8a32c3f" y="52.644375"/>
     </g>
    </g>
    <g id="text_16">
     <!-- process -->
     <g transform="translate(111.295 57.544375)scale(0.14 -0.14)">
      <defs>
       <path d="M 422 -1272 
L 422 3319 
L 934 3319 
L 934 2888 
Q 1116 3141 1344 3267 
Q 1572 3394 1897 3394 
Q 2322 3394 2647 3175 
Q 2972 2956 3137 2557 
Q 3303 2159 3303 1684 
Q 3303 1175 3120 767 
Q 2938 359 2589 142 
Q 2241 -75 1856 -75 
Q 1575 -75 1351 44 
Q 1128 163 984 344 
L 984 -1272 
L 422 -1272 
z
M 931 1641 
Q 931 1000 1190 694 
Q 1450 388 1819 388 
Q 2194 388 2461 705 
Q 2728 1022 2728 1688 
Q 2728 2322 2467 2637 
Q 2206 2953 1844 2953 
Q 1484 2953 1207 2617 
Q 931 2281 931 1641 
z
" id="ArialMT-70" transform="scale(0.015625)"/>
       <path d="M 2588 1216 
L 3141 1144 
Q 3050 572 2676 248 
Q 2303 -75 1759 -75 
Q 1078 -75 664 370 
Q 250 816 250 1647 
Q 250 2184 428 2587 
Q 606 2991 970 3192 
Q 1334 3394 1763 3394 
Q 2303 3394 2647 3120 
Q 2991 2847 3088 2344 
L 2541 2259 
Q 2463 2594 2264 2762 
Q 2066 2931 1784 2931 
Q 1359 2931 1093 2626 
Q 828 2322 828 1663 
Q 828 994 1084 691 
Q 1341 388 1753 388 
Q 2084 388 2306 591 
Q 2528 794 2588 1216 
z
" id="ArialMT-63" transform="scale(0.015625)"/>
      </defs>
      <use xlink:href="#ArialMT-70"/>
      <use x="55.615234" xlink:href="#ArialMT-72"/>
      <use x="88.916016" xlink:href="#ArialMT-6f"/>
      <use x="144.53125" xlink:href="#ArialMT-63"/>
      <use x="194.53125" xlink:href="#ArialMT-65"/>
      <use x="250.146484" xlink:href="#ArialMT-73"/>
      <use x="300.146484" xlink:href="#ArialMT-73"/>
     </g>
    </g>
    <g id="line2d_21">
     <path d="M 72.095 72.447812 
L 100.095 72.447812 
" style="fill:none;stroke:#0e9595;stroke-linecap:square;stroke-width:1.5;"/>
    </g>
    <g id="line2d_22">
     <g>
      <use style="fill:#0e9595;stroke:#0e9595;" x="86.095" xlink:href="#mda9b13fedb" y="72.447812"/>
     </g>
    </g>
    <g id="text_17">
     <!-- run -->
     <g transform="translate(111.295 77.347812)scale(0.14 -0.14)">
      <use xlink:href="#ArialMT-72"/>
      <use x="33.300781" xlink:href="#ArialMT-75"/>
      <use x="88.916016" xlink:href="#ArialMT-6e"/>
     </g>
    </g>
    <g id="line2d_23">
     <path d="M 72.095 92.25125 
L 100.095 92.25125 
" style="fill:none;stroke:#bf4e30;stroke-linecap:square;stroke-width:1.5;"/>
    </g>
    <g id="line2d_24">
     <g>
      <use style="fill:#bf4e30;stroke:#bf4e30;" x="86.095" xlink:href="#m14c4f8b5fc" y="92.25125"/>
     </g>
    </g>
    <g id="text_18">
     <!-- total -->
     <g transform="translate(111.295 97.15125)scale(0.14 -0.14)">
      <use xlink:href="#ArialMT-74"/>
      <use x="27.783203" xlink:href="#ArialMT-6f"/>
      <use x="83.398438" xlink:href="#ArialMT-74"/>
      <use x="111.181641" xlink:href="#ArialMT-61"/>
      <use x="166.796875" xlink:href="#ArialMT-6c"/>
     </g>
    </g>
   </g>
  </g>
 </g>
 <defs>
  <clipPath id="p519aab2804">
   <rect height="254.76" width="349.793661" x="59.495" y="15.12"/>
  </clipPath>
 </defs>
</svg>
